<!DOCTYPE svg PUBLIC "-//W3C//DTD SVG 1.1//EN" "http://www.w3.org/Graphics/SVG/1.1/DTD/svg11.dtd">
<svg xmlns="http://www.w3.org/2000/svg" xmlns:xlink="http://www.w3.org/1999/xlink">
	<symbol id="lg_header" viewBox="0 0 136.35 134.02">
		<path d="M90.16,35.35A3.9,3.9,0,0,1,89.52,34c-0.05-3.57,0,.08,0-3.6H68.78v74H66.61v-74H45.86v4.91H45.42V29.76a1.34,1.34,0,0,1,.45-0.12l44.29,0v5.67Z"/><path class="cls-2" d="M90.16,35.35A3.9,3.9,0,0,1,89.52,34c-0.05-3.57,0,.08,0-3.6H68.78v74H66.61v-74H45.86v4.91H45.42V29.76a1.34,1.34,0,0,1,.45-0.12l44.29,0v5.67Z"/><path class="cls-1" d="M67.42,61.88c2-1.56,4-2.92,5.68-4.55a9.86,9.86,0,0,0,2.17-3.42c1.52-3.74.42-7-2.82-8.13a9.42,9.42,0,0,0-3.89-.42c-4.12.35-6.59,3.47-6.24,7.57,0.31,3.63,2.6,6.11,5.09,8.94m-1.48.93c-2.14,1.5-4.26,2.85-6.22,4.41a12.84,12.84,0,0,0-4.14,5.91c-2,5.61-.26,11.12,4.29,13.7A13,13,0,0,0,69,88C74,87,78.07,84.34,81.61,80.69L65.94,62.81m25.75,3.84c-2.41,3.87-4.81,7.74-7.23,11.6a18.09,18.09,0,0,1-1.28,1.59l7,8c-1.24.21-2.21,0.35-3.09-.77-1.59-2-3.34-3.89-5.15-6l-1.2,1.13C76.85,85.89,72.5,88.63,67,89.13s-11.2-1.52-13.5-6.74c-0.37-.85-0.61-1.75-0.92-2.63V76.68C54,70,58.95,66.4,64.44,63.32c0.4-.22.8-0.43,1.24-0.66-1-1.28-2.1-2.46-3-3.74a9.23,9.23,0,0,1-2-7,8.19,8.19,0,0,1,7.9-7.1,13.36,13.36,0,0,1,3.82.24c4.78,1.1,6.76,5.68,4.09,9.82a20.19,20.19,0,0,1-4.31,4.3,45.1,45.1,0,0,1-4.52,2.91L82.77,79.38a42.34,42.34,0,0,0,7.75-13.88l1.17,0.89v0.26Z"/><path class="cls-2" d="M67.42,61.88c2-1.56,4-2.92,5.68-4.55a9.86,9.86,0,0,0,2.17-3.42c1.52-3.74.42-7-2.82-8.13a9.42,9.42,0,0,0-3.89-.42c-4.12.35-6.59,3.47-6.24,7.57C62.64,56.58,64.93,59.06,67.42,61.88Zm-1.48.93c-2.14,1.5-4.26,2.85-6.22,4.41a12.84,12.84,0,0,0-4.14,5.91c-2,5.61-.26,11.12,4.29,13.7A13,13,0,0,0,69,88C74,87,78.07,84.34,81.61,80.69Zm25.75,3.84c-2.41,3.87-4.81,7.74-7.23,11.6a18.09,18.09,0,0,1-1.28,1.59l7,8c-1.24.21-2.21,0.35-3.09-.77-1.59-2-3.34-3.89-5.15-6l-1.2,1.13C76.85,85.89,72.5,88.63,67,89.13s-11.2-1.52-13.5-6.74c-0.37-.85-0.61-1.75-0.92-2.63V76.68C54,70,58.95,66.4,64.44,63.32c0.4-.22.8-0.43,1.24-0.66-1-1.28-2.1-2.46-3-3.74a9.23,9.23,0,0,1-2-7,8.19,8.19,0,0,1,7.9-7.1,13.36,13.36,0,0,1,3.82.24c4.78,1.1,6.76,5.68,4.09,9.82a20.19,20.19,0,0,1-4.31,4.3,45.1,45.1,0,0,1-4.52,2.91L82.77,79.38a42.34,42.34,0,0,0,7.75-13.88l1.17,0.89v0.26Z"/><path class="cls-1" d="M68.18,0c-0.52,0-.94.86-0.94,1.93s0.42,1.93.94,1.93,0.94-.86.94-1.93S68.7,0,68.18,0m-58,33.5c-0.26.45,0.28,1.25,1.2,1.78s1.88,0.6,2.14.15-0.27-1.25-1.2-1.78-1.88-.6-2.14-0.15m0,67c0.26,0.45,1.22.38,2.14-.15s1.46-1.33,1.2-1.78-1.22-.38-2.14.15-1.46,1.33-1.2,1.78m58,33.5c0.52,0,.94-0.86.94-1.93s-0.42-1.93-.94-1.93-0.94.86-.94,1.93,0.42,1.93.94,1.93m58-33.5c0.26-.45-0.28-1.25-1.2-1.78s-1.88-.6-2.14-0.15,0.28,1.25,1.2,1.78,1.88,0.6,2.14.15m0-67c-0.26-.45-1.22-0.39-2.14.15s-1.46,1.33-1.2,1.78,1.22,0.39,2.14-.15,1.46-1.33,1.2-1.78m-26.8-20.6a1.84,1.84,0,0,1-.35.24c-0.69.35-2,.33-2-0.74a0.93,0.93,0,0,1,1.86-.08,1.39,1.39,0,0,0,.5-1.07,1.41,1.41,0,0,0-.3-0.81,1.9,1.9,0,0,0-.79-0.59,2.25,2.25,0,0,0-.91-0.17,2.51,2.51,0,0,0-.69.12,4.06,4.06,0,0,0-.75.32c-0.37.2-.78,0.48-1.23,0.79-1.53,1.05-3.48,2.39-6.18,2.26a5.12,5.12,0,0,1-.74,0c-2.44-.33-4-2.36-5.67-4.55A15.9,15.9,0,0,0,77.46,4a7,7,0,0,0-3.93-.87,5.57,5.57,0,0,0-3.4,1.46,4.78,4.78,0,0,0-1.45,4A4.3,4.3,0,0,0,69.85,11a5.08,5.08,0,0,0,1.5,1.07,3.49,3.49,0,0,0,2.23.23,3.19,3.19,0,0,0,1.84-1.12,2.9,2.9,0,0,0,.52-1,2.39,2.39,0,0,0,.07-1,2.05,2.05,0,0,0-.15-0.51,2.46,2.46,0,0,0-1-1.11,2.23,2.23,0,0,0-1.43-.29,1.72,1.72,0,0,0-.45.13,1.61,1.61,0,0,0-.69.59,0.93,0.93,0,0,1-.08,1.86c-1.22,0-1-1.57-.6-2.25a2.4,2.4,0,0,1,1.05-.91,2.54,2.54,0,0,1,.65-0.19,3,3,0,0,1,1.94.39,3.24,3.24,0,0,1,1.35,1.47,2.81,2.81,0,0,1,.21.71,3.17,3.17,0,0,1-.09,1.36A3.72,3.72,0,0,1,76,11.68a4,4,0,0,1-2.29,1.4A4.28,4.28,0,0,1,71,12.79a5.89,5.89,0,0,1-1.74-1.24,5.14,5.14,0,0,1-1.1-1.76,5.06,5.06,0,0,1-1.1,1.76,5.84,5.84,0,0,1-1.74,1.24,4.28,4.28,0,0,1-2.73.29,4,4,0,0,1-2.29-1.4,3.68,3.68,0,0,1-.65-1.26,3.17,3.17,0,0,1-.09-1.36,2.84,2.84,0,0,1,.21-0.71,3.25,3.25,0,0,1,1.35-1.47,3,3,0,0,1,1.94-.39,2.54,2.54,0,0,1,.65.19,2.4,2.4,0,0,1,1.05.91c0.42,0.68.62,2.25-.6,2.25A0.93,0.93,0,0,1,64.11,8a1.61,1.61,0,0,0-.69-0.59A1.74,1.74,0,0,0,63,7.27a2.23,2.23,0,0,0-1.44.29,2.47,2.47,0,0,0-1,1.11,2.09,2.09,0,0,0-.15.51,2.39,2.39,0,0,0,.07,1,2.92,2.92,0,0,0,.52,1,3.19,3.19,0,0,0,1.84,1.12A3.49,3.49,0,0,0,65,12.08,5.07,5.07,0,0,0,66.51,11a4.3,4.3,0,0,0,1.17-2.44A4.74,4.74,0,0,0,67.24,6a4.8,4.8,0,0,0-1-1.41,5.58,5.58,0,0,0-3.4-1.46A7,7,0,0,0,58.9,4a15.88,15.88,0,0,0-4.66,4.62c-1.67,2.19-3.22,4.22-5.67,4.55a5.13,5.13,0,0,1-.74,0c-2.7.14-4.64-1.2-6.18-2.26-0.45-.31-0.86-0.59-1.23-0.79a4.11,4.11,0,0,0-.75-0.32A2.52,2.52,0,0,0,39,9.69a2.23,2.23,0,0,0-.91.17,1.89,1.89,0,0,0-.79.59,1.4,1.4,0,0,0-.3.81,1.27,1.27,0,0,0,.1.53,1.31,1.31,0,0,0,.4.54,0.93,0.93,0,0,1,1.86.08c0,1.07-1.35,1.09-2,.74a1.9,1.9,0,0,1-.36-0.24,1.9,1.9,0,0,1,0,.43c0,0.78-.73,1.93-1.66,1.4a0.93,0.93,0,0,1,.86-1.64,1.32,1.32,0,0,0-.27-0.62,1.3,1.3,0,0,0-.41-0.35A1.39,1.39,0,0,0,34.64,12a1.88,1.88,0,0,0-.91.38,2.23,2.23,0,0,0-.6.71,2.49,2.49,0,0,0-.24.66,4.22,4.22,0,0,0-.09.81c0,0.42,0,.92.07,1.46,0.15,1.86.33,4.21-1.13,6.48a5.07,5.07,0,0,1-.41.62c-1.5,2-4,2.28-6.77,2.63a15.84,15.84,0,0,0-6.34,1.73,7,7,0,0,0-2.72,3,5.57,5.57,0,0,0-.44,3.67,4.8,4.8,0,0,0,2.76,3.26,4.3,4.3,0,0,0,2.7.21,5,5,0,0,0,1.68-.77A3.48,3.48,0,0,0,23.51,35a3.19,3.19,0,0,0-.05-2.15,2.91,2.91,0,0,0-.6-0.94A2.35,2.35,0,0,0,22,31.32a1.92,1.92,0,0,0-.52-0.12,2.46,2.46,0,0,0-1.47.33,2.23,2.23,0,0,0-1,1.09,1.74,1.74,0,0,0-.11.46,1.6,1.6,0,0,0,.16.9,0.93,0.93,0,0,1,1.57,1c-0.61,1.06-1.87.09-2.25-.6A2.4,2.4,0,0,1,18.16,33a2.57,2.57,0,0,1,.16-0.66,3,3,0,0,1,1.31-1.49,3.24,3.24,0,0,1,1.95-.44,2.85,2.85,0,0,1,.72.17,3.15,3.15,0,0,1,1.13.76,3.7,3.7,0,0,1,.76,1.2,4,4,0,0,1,.07,2.68,4.28,4.28,0,0,1-1.62,2.22,5.86,5.86,0,0,1-1.94.89,5.08,5.08,0,0,1-2.08.07,5.06,5.06,0,0,1,1,1.83,5.86,5.86,0,0,1,.2,2.12,4.28,4.28,0,0,1-1.11,2.51,4,4,0,0,1-2.36,1.28,3.7,3.7,0,0,1-1.42-.06,3.15,3.15,0,0,1-1.22-.6,2.79,2.79,0,0,1-.51-0.54,3.25,3.25,0,0,1-.6-1.91,3,3,0,0,1,.64-1.88,2.55,2.55,0,0,1,.49-0.47A2.38,2.38,0,0,1,15,40.24c0.79,0,2.26.58,1.65,1.64A0.93,0.93,0,0,1,15,41a1.61,1.61,0,0,0-.86.3,1.78,1.78,0,0,0-.34.33A2.22,2.22,0,0,0,13.38,43a2.45,2.45,0,0,0,.45,1.44,2,2,0,0,0,.37.39,2.36,2.36,0,0,0,.92.45,2.89,2.89,0,0,0,1.11,0,3.2,3.2,0,0,0,1.89-1,3.49,3.49,0,0,0,.91-2,5,5,0,0,0-.17-1.83,4.3,4.3,0,0,0-1.53-2.23,4.75,4.75,0,0,0-2.48-.94,4.8,4.8,0,0,0-1.73.18,5.58,5.58,0,0,0-3,2.22,7,7,0,0,0-1.21,3.84,15.85,15.85,0,0,0,1.67,6.35c1.06,2.54,2,4.9,1.11,7.19a4.92,4.92,0,0,1-.33.67c-1.23,2.41-3.36,3.42-5,4.22-0.49.23-.94,0.45-1.3,0.67a4.12,4.12,0,0,0-.65.48,2.5,2.5,0,0,0-.45.54,2.26,2.26,0,0,0-.31.87,1.86,1.86,0,0,0,.12,1,1.4,1.4,0,0,0,.55.66,1.4,1.4,0,0,0,1.18.11,0.93,0.93,0,0,1,1-1.57c0.93,0.53.27,1.71-.38,2.13a1.92,1.92,0,0,1-.39.19,1.86,1.86,0,0,1,.39.19c0.65,0.42,1.31,1.6.38,2.13a0.93,0.93,0,0,1-1-1.57,1.34,1.34,0,0,0-.67-0.07,1.31,1.31,0,0,0-.51.18,1.4,1.4,0,0,0-.56.66,1.89,1.89,0,0,0-.12,1,2.25,2.25,0,0,0,.31.87,2.47,2.47,0,0,0,.45.54A4,4,0,0,0,5,71.4c0.36,0.22.81,0.44,1.3,0.67,1.68,0.8,3.81,1.81,5,4.22a5.1,5.1,0,0,1,.33.67c0.94,2.28,0,4.64-1.11,7.19a15.84,15.84,0,0,0-1.67,6.35,7,7,0,0,0,1.21,3.84,5.58,5.58,0,0,0,3,2.22,4.82,4.82,0,0,0,1.73.18,4.74,4.74,0,0,0,2.48-.94,4.29,4.29,0,0,0,1.53-2.23A5.06,5.06,0,0,0,19,91.72a3.5,3.5,0,0,0-.91-2,3.19,3.19,0,0,0-1.89-1,2.91,2.91,0,0,0-1.11,0,2.38,2.38,0,0,0-.92.45,2,2,0,0,0-.36.39A2.45,2.45,0,0,0,13.38,91a2.23,2.23,0,0,0,.46,1.39,1.86,1.86,0,0,0,.34.32A1.6,1.6,0,0,0,15,93a0.93,0.93,0,0,1,1.65-.86c0.61,1.06-.85,1.67-1.65,1.64a2.39,2.39,0,0,1-1.32-.45,2.58,2.58,0,0,1-.49-0.47A3,3,0,0,1,12.59,91a3.25,3.25,0,0,1,.6-1.91,2.79,2.79,0,0,1,.51-0.54,3.16,3.16,0,0,1,1.22-.6,3.68,3.68,0,0,1,1.42-.06,4,4,0,0,1,2.36,1.28,4.28,4.28,0,0,1,1.11,2.51,5.85,5.85,0,0,1-.2,2.12,5.06,5.06,0,0,1-1,1.83,5.07,5.07,0,0,1,2.08.07,5.88,5.88,0,0,1,1.94.89,4.28,4.28,0,0,1,1.62,2.22,4,4,0,0,1-.07,2.68,3.67,3.67,0,0,1-.76,1.19,3.18,3.18,0,0,1-1.13.76,2.85,2.85,0,0,1-.72.17,3.24,3.24,0,0,1-1.95-.44,3,3,0,0,1-1.31-1.49,2.58,2.58,0,0,1-.16-0.66,2.39,2.39,0,0,1,.27-1.37c0.38-.7,1.64-1.66,2.25-0.61a0.93,0.93,0,0,1-1.57,1,1.61,1.61,0,0,0-.16.9,1.77,1.77,0,0,0,.11.46,2.23,2.23,0,0,0,1,1.09,2.47,2.47,0,0,0,1.47.33A2,2,0,0,0,22,102.7a2.4,2.4,0,0,0,.85-0.57,2.89,2.89,0,0,0,.6-0.94A3.18,3.18,0,0,0,23.51,99a3.49,3.49,0,0,0-1.32-1.81,5.06,5.06,0,0,0-1.68-.77,4.29,4.29,0,0,0-2.7.21,4.74,4.74,0,0,0-2.05,1.68,4.79,4.79,0,0,0-.71,1.58,5.57,5.57,0,0,0,.44,3.67,7,7,0,0,0,2.72,3,15.88,15.88,0,0,0,6.34,1.73c2.73,0.35,5.27.68,6.77,2.63a5,5,0,0,1,.41.62c1.47,2.27,1.28,4.62,1.13,6.48,0,0.54-.08,1-0.07,1.46a4.24,4.24,0,0,0,.09.81,2.57,2.57,0,0,0,.24.66,2.25,2.25,0,0,0,.6.7,1.9,1.9,0,0,0,.91.38,1.41,1.41,0,0,0,.85-0.15,1.31,1.31,0,0,0,.41-0.35,1.33,1.33,0,0,0,.27-0.61,0.93,0.93,0,0,1-.86-1.65c0.93-.53,1.62.62,1.66,1.4a1.86,1.86,0,0,1,0,.43,1.89,1.89,0,0,1,.36-0.24c0.69-.35,2-0.33,2,0.74a0.93,0.93,0,0,1-1.86.07,1.34,1.34,0,0,0-.4.54,1.3,1.3,0,0,0-.1.53,1.4,1.4,0,0,0,.3.81,1.87,1.87,0,0,0,.79.6,2.25,2.25,0,0,0,.91.17,2.53,2.53,0,0,0,.69-0.12,4.22,4.22,0,0,0,.75-0.32c0.37-.2.78-0.49,1.23-0.8,1.53-1.05,3.48-2.39,6.18-2.26a5.14,5.14,0,0,1,.74,0c2.44,0.33,4,2.36,5.67,4.55A15.89,15.89,0,0,0,58.9,130a7,7,0,0,0,3.93.87,5.57,5.57,0,0,0,3.4-1.46,4.79,4.79,0,0,0,1.44-4A4.3,4.3,0,0,0,66.51,123a5.05,5.05,0,0,0-1.5-1.07,3.49,3.49,0,0,0-2.23-.23,3.18,3.18,0,0,0-1.84,1.12,2.89,2.89,0,0,0-.51,1,2.38,2.38,0,0,0-.07,1,2,2,0,0,0,.15.51,2.46,2.46,0,0,0,1,1.11,2.23,2.23,0,0,0,1.43.3,1.77,1.77,0,0,0,.45-0.13,1.59,1.59,0,0,0,.69-0.59,0.93,0.93,0,0,1,.08-1.85c1.22,0,1,1.57.6,2.25a2.39,2.39,0,0,1-1.05.91,2.55,2.55,0,0,1-.65.19,3,3,0,0,1-1.94-.39,3.25,3.25,0,0,1-1.35-1.47,2.74,2.74,0,0,1-.21-0.71,3.15,3.15,0,0,1,.09-1.36,3.69,3.69,0,0,1,.65-1.26,4,4,0,0,1,2.29-1.4,4.28,4.28,0,0,1,2.73.29,5.84,5.84,0,0,1,1.74,1.24,5.07,5.07,0,0,1,1.1,1.76,5.1,5.1,0,0,1,1.1-1.76A5.89,5.89,0,0,1,71,121.22a4.28,4.28,0,0,1,2.73-.29,4,4,0,0,1,2.29,1.4,3.72,3.72,0,0,1,.65,1.26,3.14,3.14,0,0,1,.09,1.36,2.78,2.78,0,0,1-.21.71,3.25,3.25,0,0,1-1.35,1.47,3,3,0,0,1-1.94.39,2.53,2.53,0,0,1-.65-0.19,2.4,2.4,0,0,1-1.05-.91c-0.42-.68-0.62-2.25.6-2.25a0.93,0.93,0,0,1,.08,1.85,1.62,1.62,0,0,0,.69.59,1.85,1.85,0,0,0,.45.13,2.23,2.23,0,0,0,1.43-.3,2.47,2.47,0,0,0,1-1.11,2,2,0,0,0,.15-0.51,2.39,2.39,0,0,0-.07-1,2.9,2.9,0,0,0-.52-1,3.19,3.19,0,0,0-1.84-1.12,3.5,3.5,0,0,0-2.23.23,5.09,5.09,0,0,0-1.5,1.07,4.3,4.3,0,0,0-1.16,2.44,4.75,4.75,0,0,0,.43,2.62,4.81,4.81,0,0,0,1,1.41,5.57,5.57,0,0,0,3.4,1.46,7,7,0,0,0,3.93-.87,15.9,15.9,0,0,0,4.67-4.62c1.67-2.19,3.22-4.22,5.67-4.55a5.15,5.15,0,0,1,.74,0c2.7-.13,4.65,1.2,6.18,2.26,0.45,0.31.86,0.59,1.23,0.8a4.4,4.4,0,0,0,.75.32,2.52,2.52,0,0,0,.69.12,2.26,2.26,0,0,0,.91-0.17,1.89,1.89,0,0,0,.79-0.6,1.41,1.41,0,0,0,.3-0.81,1.34,1.34,0,0,0-.1-0.53,1.37,1.37,0,0,0-.4-0.54,0.93,0.93,0,0,1-1.85-.07c0-1.07,1.35-1.09,2-.74a1.83,1.83,0,0,1,.36.24,1.88,1.88,0,0,1,0-.43c0-.78.73-1.93,1.66-1.39a0.93,0.93,0,0,1-.86,1.65,1.39,1.39,0,0,0,.68,1,1.42,1.42,0,0,0,.85.15,1.88,1.88,0,0,0,.91-0.38,2.23,2.23,0,0,0,.6-0.7,2.49,2.49,0,0,0,.24-0.66,4.17,4.17,0,0,0,.09-0.81c0-.42,0-0.92-0.07-1.46-0.15-1.85-.33-4.21,1.13-6.48a5.09,5.09,0,0,1,.41-0.62c1.5-2,4-2.28,6.77-2.63a15.89,15.89,0,0,0,6.34-1.73,7,7,0,0,0,2.72-3,5.57,5.57,0,0,0,.44-3.67,4.8,4.8,0,0,0-.71-1.58,4.73,4.73,0,0,0-2.05-1.68,4.29,4.29,0,0,0-2.69-.21,5,5,0,0,0-1.68.77A3.48,3.48,0,0,0,112.84,99a3.2,3.2,0,0,0,.05,2.15,2.93,2.93,0,0,0,.6.94,2.36,2.36,0,0,0,.85.57,2,2,0,0,0,.52.12,2.45,2.45,0,0,0,1.47-.33,2.22,2.22,0,0,0,1-1.09,1.74,1.74,0,0,0,.11-0.46,1.58,1.58,0,0,0-.17-0.9,0.93,0.93,0,0,1-1.56-1c0.61-1.06,1.87-.09,2.25.61a2.38,2.38,0,0,1,.26,1.37,2.55,2.55,0,0,1-.16.66,3,3,0,0,1-1.31,1.49,3.25,3.25,0,0,1-2,.44,2.78,2.78,0,0,1-.72-0.17,3.16,3.16,0,0,1-1.13-.76,3.67,3.67,0,0,1-.76-1.19,4,4,0,0,1-.07-2.68,4.28,4.28,0,0,1,1.62-2.22,5.86,5.86,0,0,1,1.94-.89,5.07,5.07,0,0,1,2.08-.07,5.05,5.05,0,0,1-1-1.83,5.87,5.87,0,0,1-.2-2.12,4.28,4.28,0,0,1,1.11-2.51A4,4,0,0,1,120,87.87a3.7,3.7,0,0,1,1.42.06,3.14,3.14,0,0,1,1.22.6,2.84,2.84,0,0,1,.51.54,3.25,3.25,0,0,1,.6,1.91,3,3,0,0,1-.64,1.88,2.5,2.5,0,0,1-.49.47,2.4,2.4,0,0,1-1.32.46c-0.79,0-2.26-.59-1.65-1.64a0.93,0.93,0,0,1,1.65.86,1.59,1.59,0,0,0,.86-0.3,1.74,1.74,0,0,0,.34-0.32A2.24,2.24,0,0,0,123,91a2.47,2.47,0,0,0-.45-1.44,2.09,2.09,0,0,0-.36-0.39,2.41,2.41,0,0,0-.92-0.45,2.88,2.88,0,0,0-1.11,0,3.18,3.18,0,0,0-1.89,1,3.49,3.49,0,0,0-.91,2,5.08,5.08,0,0,0,.17,1.84A4.32,4.32,0,0,0,119,95.79a4.73,4.73,0,0,0,2.48.94,4.81,4.81,0,0,0,1.73-.18,5.58,5.58,0,0,0,3-2.22,7,7,0,0,0,1.21-3.84,15.87,15.87,0,0,0-1.67-6.35c-1.06-2.54-2-4.9-1.11-7.18a5.08,5.08,0,0,1,.33-0.67c1.23-2.41,3.36-3.42,5-4.22,0.49-.23.94-0.45,1.3-0.67a4.19,4.19,0,0,0,.65-0.48,2.5,2.5,0,0,0,.45-0.54,2.24,2.24,0,0,0,.31-0.87,1.91,1.91,0,0,0-.12-1,1.4,1.4,0,0,0-.56-0.66,1.29,1.29,0,0,0-.51-0.18,1.34,1.34,0,0,0-.67.07,0.93,0.93,0,0,1-1,1.57c-0.93-.54-0.27-1.71.38-2.13a2,2,0,0,1,.39-0.19,1.93,1.93,0,0,1-.39-0.19c-0.65-.42-1.31-1.6-0.38-2.13a0.93,0.93,0,0,1,1,1.57,1.32,1.32,0,0,0,.67.07,1.28,1.28,0,0,0,.51-0.18,1.41,1.41,0,0,0,.56-0.66,1.9,1.9,0,0,0,.12-1,2.26,2.26,0,0,0-.31-0.87A2.51,2.51,0,0,0,132,63.1a4.24,4.24,0,0,0-.65-0.48c-0.36-.22-0.81-0.43-1.3-0.67-1.68-.8-3.81-1.82-5-4.22a5,5,0,0,1-.33-0.67c-0.94-2.28,0-4.64,1.11-7.18a15.86,15.86,0,0,0,1.67-6.35,7,7,0,0,0-1.21-3.84,5.59,5.59,0,0,0-3-2.22,4.78,4.78,0,0,0-1.73-.17,4.72,4.72,0,0,0-2.48.94,4.3,4.3,0,0,0-1.53,2.23,5.08,5.08,0,0,0-.17,1.83,3.49,3.49,0,0,0,.91,2,3.18,3.18,0,0,0,1.89,1,2.88,2.88,0,0,0,1.11,0,2.4,2.4,0,0,0,.92-0.45,2.13,2.13,0,0,0,.36-0.39A2.47,2.47,0,0,0,123,43a2.23,2.23,0,0,0-.46-1.39,1.79,1.79,0,0,0-.34-0.33,1.61,1.61,0,0,0-.86-0.3,0.93,0.93,0,0,1-1.65.86c-0.61-1.06.85-1.67,1.65-1.64a2.38,2.38,0,0,1,1.32.45,2.5,2.5,0,0,1,.49.47,3,3,0,0,1,.64,1.88,3.25,3.25,0,0,1-.6,1.91,2.79,2.79,0,0,1-.51.54,3.15,3.15,0,0,1-1.22.6,3.7,3.7,0,0,1-1.42.06,4,4,0,0,1-2.36-1.28,4.28,4.28,0,0,1-1.11-2.51,5.87,5.87,0,0,1,.2-2.12,5.06,5.06,0,0,1,1-1.83,5.08,5.08,0,0,1-2.08-.07,5.87,5.87,0,0,1-1.94-.89,4.28,4.28,0,0,1-1.62-2.22,4,4,0,0,1,.07-2.68,3.68,3.68,0,0,1,.76-1.2,3.14,3.14,0,0,1,1.13-.76,2.85,2.85,0,0,1,.72-0.17,3.26,3.26,0,0,1,2,.44A3,3,0,0,1,118,32.34a2.54,2.54,0,0,1,.16.66,2.38,2.38,0,0,1-.26,1.37c-0.38.7-1.64,1.66-2.25,0.6a0.93,0.93,0,0,1,1.56-1,1.58,1.58,0,0,0,.17-0.89,1.75,1.75,0,0,0-.11-0.46,2.23,2.23,0,0,0-1-1.09,2.46,2.46,0,0,0-1.47-.33,2,2,0,0,0-.52.12,2.39,2.39,0,0,0-.85.57,2.89,2.89,0,0,0-.6.94,3.2,3.2,0,0,0-.05,2.15,3.48,3.48,0,0,0,1.32,1.81,5.06,5.06,0,0,0,1.68.77,4.3,4.3,0,0,0,2.69-.21,4.74,4.74,0,0,0,2.05-1.68,4.8,4.8,0,0,0,.71-1.58,5.58,5.58,0,0,0-.44-3.67,7,7,0,0,0-2.72-3,15.87,15.87,0,0,0-6.34-1.73c-2.73-.35-5.27-0.68-6.77-2.63a5.27,5.27,0,0,1-.41-0.62c-1.47-2.27-1.28-4.62-1.13-6.48,0-.54.08-1,0.07-1.46a4.17,4.17,0,0,0-.09-0.81,2.48,2.48,0,0,0-.24-0.66,2.23,2.23,0,0,0-.6-0.71,1.9,1.9,0,0,0-.91-0.38,1.4,1.4,0,0,0-.85.15,1.31,1.31,0,0,0-.41.35,1.36,1.36,0,0,0-.27.62,0.93,0.93,0,0,1,.86,1.65c-0.93.54-1.62-.62-1.66-1.39a1.9,1.9,0,0,1,0-.43M34.09,8a1.25,1.25,0,1,0,1.71.46A1.25,1.25,0,0,0,34.09,8M0,67a1.25,1.25,0,1,0,1.25-1.25A1.25,1.25,0,0,0,0,67m34.09,59a1.25,1.25,0,1,0-.46-1.71,1.25,1.25,0,0,0,.46,1.71m68.18,0a1.25,1.25,0,1,0-1.71-.46,1.25,1.25,0,0,0,1.71.46m34.09-59a1.25,1.25,0,1,0-1.25,1.25A1.25,1.25,0,0,0,136.35,67M102.27,8a1.25,1.25,0,1,0,.46,1.71A1.25,1.25,0,0,0,102.27,8m-10.48,3.8a15.68,15.68,0,0,0,2.48-1.48,15.12,15.12,0,0,1,1.3-.84,4.85,4.85,0,0,1,.89-0.39,3.29,3.29,0,0,1,.91-0.16,3,3,0,0,1,1.22.22A2.68,2.68,0,0,1,99.7,10a2.18,2.18,0,0,1,.45,1.27,2,2,0,0,1,0,.44,2,2,0,0,1,.36-0.25,2.19,2.19,0,0,1,1.33-.24,2.68,2.68,0,0,1,1.29.54,3,3,0,0,1,.8.95,3.29,3.29,0,0,1,.32.87,5.06,5.06,0,0,1,.11,1c0,0.47,0,1-.07,1.55a15.65,15.65,0,0,0,0,2.89A3.77,3.77,0,0,1,104.7,18a3.82,3.82,0,0,1,1.66-1.36,3.54,3.54,0,0,1,2.21-.18,4.06,4.06,0,0,1,1.34.61A3,3,0,0,1,111,20.52a2.6,2.6,0,0,1-.54.84,2.25,2.25,0,0,1-.81.54,1.58,1.58,0,0,1-1.89-.38,0.93,0.93,0,1,1,1.73-.41,1.48,1.48,0,0,0,.39-0.3,1.82,1.82,0,0,0,.37-0.59,2.16,2.16,0,0,0-.8-2.5,3.28,3.28,0,0,0-1.08-.5,2.75,2.75,0,0,0-1.73.14,3.08,3.08,0,0,0-1.78,2.1,3.8,3.8,0,0,0,.76,3.16c1.3,1.69,3.69,2,6.25,2.33a16.45,16.45,0,0,1,6.65,1.84,7.79,7.79,0,0,1,3,3.3,6.37,6.37,0,0,1,.49,4.19,5.58,5.58,0,0,1-.83,1.85c-0.11.16-.23,0.32-0.36,0.46a5.58,5.58,0,0,1,2.59.13,6.37,6.37,0,0,1,3.39,2.52,7.8,7.8,0,0,1,1.34,4.27,16.45,16.45,0,0,1-1.73,6.67c-1,2.39-1.92,4.6-1.1,6.58A3.8,3.8,0,0,0,127.71,59a3.07,3.07,0,0,0,1.11.11,3,3,0,0,0,1.6-.6,2.74,2.74,0,0,0,1-1.43,3.25,3.25,0,0,0,.11-1.18A2.16,2.16,0,0,0,129.74,54a1.82,1.82,0,0,0-.7,0,1.55,1.55,0,0,0-.45.19,0.92,0.92,0,0,1,.39.37,0.93,0.93,0,1,1-1.61.93,1.58,1.58,0,0,1,.61-1.83,2.25,2.25,0,0,1,.87-0.43,2.6,2.6,0,0,1,1,0,3,3,0,0,1,2.44,2.66,4,4,0,0,1-.14,1.47,3.51,3.51,0,0,1-1.26,1.83,3.86,3.86,0,0,1-3.06.7,15.65,15.65,0,0,0,2.52,1.41c0.51,0.24,1,.47,1.38.71a5,5,0,0,1,.78.58,3.23,3.23,0,0,1,.59.71,3,3,0,0,1,.42,1.17,2.69,2.69,0,0,1-.17,1.39,2.19,2.19,0,0,1-.87,1,2,2,0,0,1-.4.19,2.11,2.11,0,0,1,1.28,1.22,2.68,2.68,0,0,1,.17,1.39,3,3,0,0,1-.42,1.17,3.32,3.32,0,0,1-.59.71,5,5,0,0,1-.78.58,15.16,15.16,0,0,1-1.38.71,15.78,15.78,0,0,0-2.52,1.41,3.89,3.89,0,0,1,1.05-.06,3.84,3.84,0,0,1,2,.76,3.53,3.53,0,0,1,1.26,1.83,4,4,0,0,1,.14,1.47,3,3,0,0,1-2.44,2.66,2.63,2.63,0,0,1-1,0,2.26,2.26,0,0,1-.87-0.43,1.58,1.58,0,0,1-.61-1.83,0.93,0.93,0,1,1,1.61.93,0.91,0.91,0,0,1-.39.37A1.49,1.49,0,0,0,129,80a1.81,1.81,0,0,0,.7,0,2.16,2.16,0,0,0,1.77-1.94,3.24,3.24,0,0,0-.11-1.18,2.74,2.74,0,0,0-1-1.43,3.09,3.09,0,0,0-2.71-.49,3.79,3.79,0,0,0-2.35,2.24c-0.82,2,.11,4.2,1.1,6.58a16.44,16.44,0,0,1,1.73,6.67,7.8,7.8,0,0,1-1.34,4.27,6.38,6.38,0,0,1-3.39,2.52,5.61,5.61,0,0,1-2,.21,5.49,5.49,0,0,1-.58-0.08c0.13,0.15.25,0.3,0.36,0.47a5.61,5.61,0,0,1,.83,1.85,6.37,6.37,0,0,1-.49,4.19,7.79,7.79,0,0,1-3,3.3,16.44,16.44,0,0,1-6.65,1.84c-2.56.33-4.95,0.64-6.25,2.33a3.79,3.79,0,0,0-.76,3.15,3.08,3.08,0,0,0,1.78,2.1,2.75,2.75,0,0,0,1.73.14,3.26,3.26,0,0,0,1.08-.5,2.17,2.17,0,0,0,.8-2.5,1.83,1.83,0,0,0-.37-0.59,1.51,1.51,0,0,0-.39-0.29,0.93,0.93,0,1,1-1.73-.41,1.58,1.58,0,0,1,1.89-.38,2.23,2.23,0,0,1,.81.54,2.58,2.58,0,0,1,.54.84,3,3,0,0,1-1.08,3.44,4,4,0,0,1-1.34.61,3.52,3.52,0,0,1-2.21-.18,3.86,3.86,0,0,1-2.14-2.3,15.63,15.63,0,0,0,0,2.88c0,0.56.09,1.08,0.07,1.55a5.1,5.1,0,0,1-.11,1,3.3,3.3,0,0,1-.32.87,3,3,0,0,1-.8.95,2.68,2.68,0,0,1-1.29.54,2.19,2.19,0,0,1-1.33-.24,2,2,0,0,1-.36-0.26,2.14,2.14,0,0,1,0,.44A2.19,2.19,0,0,1,99.7,124a2.67,2.67,0,0,1-1.12.85,3,3,0,0,1-1.22.22,3.26,3.26,0,0,1-.91-0.16,5,5,0,0,1-.89-0.38c-0.41-.22-0.84-0.52-1.3-0.84a15.62,15.62,0,0,0-2.48-1.48,3.9,3.9,0,0,1,.58.88,3.86,3.86,0,0,1,.34,2.12,3.54,3.54,0,0,1-1,2,4,4,0,0,1-1.2.86,3,3,0,0,1-3.52-.78,2.57,2.57,0,0,1-.46-0.89,2.23,2.23,0,0,1-.06-1A1.58,1.58,0,0,1,87.78,124a0.93,0.93,0,1,1-.52,1.7,1.51,1.51,0,0,0,.06.49,1.8,1.8,0,0,0,.32.62,2.16,2.16,0,0,0,2.57.56,3.26,3.26,0,0,0,1-.69,2.75,2.75,0,0,0,.75-1.56,3.07,3.07,0,0,0-.93-2.59,3.8,3.8,0,0,0-3.11-.92c-2.12.28-3.58,2.19-5.15,4.25a16.44,16.44,0,0,1-4.91,4.84,7.77,7.77,0,0,1-4.37,1A6.37,6.37,0,0,1,69.58,130a5.63,5.63,0,0,1-1.18-1.64,5.69,5.69,0,0,1-.22-0.54,5.3,5.3,0,0,1-.22.54A5.62,5.62,0,0,1,66.77,130a6.37,6.37,0,0,1-3.88,1.67,7.79,7.79,0,0,1-4.37-1,16.42,16.42,0,0,1-4.91-4.84c-1.57-2.06-3-4-5.15-4.25a3.8,3.8,0,0,0-3.11.92,3.08,3.08,0,0,0-.93,2.59,2.75,2.75,0,0,0,.75,1.56,3.27,3.27,0,0,0,1,.69,2.17,2.17,0,0,0,2.57-.56,1.8,1.8,0,0,0,.32-0.62,1.5,1.5,0,0,0,.06-0.49,0.92,0.92,0,0,1-.51.16,0.93,0.93,0,1,1,0-1.86,1.58,1.58,0,0,1,1.27,1.44,2.24,2.24,0,0,1-.06,1,2.59,2.59,0,0,1-.46.89,3,3,0,0,1-3.52.78,4,4,0,0,1-1.2-.86,3.52,3.52,0,0,1-1-2,3.83,3.83,0,0,1,.34-2.12,3.9,3.9,0,0,1,.58-0.88,15.62,15.62,0,0,0-2.48,1.48c-0.46.32-.89,0.61-1.3,0.84a5,5,0,0,1-.89.38,3.27,3.27,0,0,1-.91.16,3,3,0,0,1-1.22-.22,2.69,2.69,0,0,1-1.12-.85,2.19,2.19,0,0,1-.45-1.27,2,2,0,0,1,0-.44,2,2,0,0,1-.37.25,2.17,2.17,0,0,1-1.33.24,2.67,2.67,0,0,1-1.29-.54,3,3,0,0,1-.8-0.95,3.27,3.27,0,0,1-.32-0.87,5.07,5.07,0,0,1-.11-1A15.28,15.28,0,0,1,32.1,118a15.71,15.71,0,0,0,0-2.89,3.86,3.86,0,0,1-2.14,2.3,3.54,3.54,0,0,1-2.21.18,4,4,0,0,1-1.34-.61,3,3,0,0,1-1.08-3.44,2.63,2.63,0,0,1,.54-0.84,2.25,2.25,0,0,1,.81-0.54,1.58,1.58,0,0,1,1.89.38,0.93,0.93,0,1,1-1.73.41,1.52,1.52,0,0,0-.39.29,1.8,1.8,0,0,0-.37.59,2.16,2.16,0,0,0,.8,2.5,3.25,3.25,0,0,0,1.08.5,2.76,2.76,0,0,0,1.73-.14,3.08,3.08,0,0,0,1.78-2.1,3.8,3.8,0,0,0-.76-3.16c-1.3-1.69-3.69-2-6.25-2.33a16.46,16.46,0,0,1-6.65-1.84,7.78,7.78,0,0,1-3-3.3,6.36,6.36,0,0,1-.49-4.19,5.59,5.59,0,0,1,.83-1.85q0.17-.24.36-0.47a5.65,5.65,0,0,1-.58.08,5.57,5.57,0,0,1-2-.21A6.36,6.36,0,0,1,9.5,94.78a7.79,7.79,0,0,1-1.34-4.27,16.46,16.46,0,0,1,1.73-6.67c1-2.39,1.92-4.6,1.11-6.58A3.79,3.79,0,0,0,8.65,75a3.08,3.08,0,0,0-2.71.49,2.75,2.75,0,0,0-1,1.43,3.27,3.27,0,0,0-.11,1.18,2.16,2.16,0,0,0,1.77,1.94,1.81,1.81,0,0,0,.7,0,1.55,1.55,0,0,0,.45-0.19A0.93,0.93,0,1,1,9,78.54a1.58,1.58,0,0,1-.61,1.83,2.25,2.25,0,0,1-.87.43,2.6,2.6,0,0,1-1,0,3,3,0,0,1-2.44-2.66,4.08,4.08,0,0,1,.14-1.47,3.53,3.53,0,0,1,1.26-1.83,3.83,3.83,0,0,1,2-.76,3.88,3.88,0,0,1,1.06.06A15.78,15.78,0,0,0,6,72.78c-0.51-.24-1-0.47-1.38-0.71a5,5,0,0,1-.78-0.58,3.29,3.29,0,0,1-.59-0.71,3,3,0,0,1-.42-1.17A2.68,2.68,0,0,1,3,68.22a2.19,2.19,0,0,1,.87-1A2.07,2.07,0,0,1,4.3,67a2.12,2.12,0,0,1-.4-0.19,2.19,2.19,0,0,1-.87-1,2.68,2.68,0,0,1-.18-1.39,3,3,0,0,1,.42-1.17,3.3,3.3,0,0,1,.59-0.71,5,5,0,0,1,.78-0.58C5,61.7,5.5,61.48,6,61.24a15.63,15.63,0,0,0,2.52-1.41,3.87,3.87,0,0,1-1.06.06,3.82,3.82,0,0,1-2-.76A3.52,3.52,0,0,1,4.21,57.3a4.05,4.05,0,0,1-.14-1.47,3,3,0,0,1,2.44-2.66,2.58,2.58,0,0,1,1,0,2.24,2.24,0,0,1,.87.43A1.58,1.58,0,0,1,9,55.47a0.93,0.93,0,1,1-1.22-1.3A1.47,1.47,0,0,0,7.31,54a1.83,1.83,0,0,0-.7,0,2.16,2.16,0,0,0-1.77,1.94A3.25,3.25,0,0,0,5,57.08a2.75,2.75,0,0,0,1,1.43,3,3,0,0,0,1.6.6A3.1,3.1,0,0,0,8.65,59,3.8,3.8,0,0,0,11,56.76c0.81-2-.11-4.2-1.11-6.58A16.47,16.47,0,0,1,8.16,43.5,7.78,7.78,0,0,1,9.5,39.23a6.36,6.36,0,0,1,3.39-2.52,5.56,5.56,0,0,1,2-.21,5.64,5.64,0,0,1,.58.08,5.73,5.73,0,0,1-.36-0.46,5.57,5.57,0,0,1-.83-1.85,6.37,6.37,0,0,1,.49-4.19,7.79,7.79,0,0,1,3-3.3,16.47,16.47,0,0,1,6.65-1.84c2.56-.33,4.95-0.64,6.25-2.33a3.8,3.8,0,0,0,.76-3.16,3.08,3.08,0,0,0-1.78-2.1A2.74,2.74,0,0,0,28,17.23a3.25,3.25,0,0,0-1.08.5,2.16,2.16,0,0,0-.8,2.5,1.8,1.8,0,0,0,.37.59,1.54,1.54,0,0,0,.39.3,0.93,0.93,0,1,1,1.73.41,1.58,1.58,0,0,1-1.89.38,2.26,2.26,0,0,1-.81-0.54,2.63,2.63,0,0,1-.54-0.84,3,3,0,0,1,1.08-3.44,4.07,4.07,0,0,1,1.34-.61,3.52,3.52,0,0,1,2.21.18,3.87,3.87,0,0,1,2.14,2.3,15.64,15.64,0,0,0,0-2.89C32,15.49,32,15,32,14.51a5,5,0,0,1,.11-1,3.26,3.26,0,0,1,.32-0.87,3,3,0,0,1,.8-0.95,2.67,2.67,0,0,1,1.29-.54,2.18,2.18,0,0,1,1.33.24,2,2,0,0,1,.37.26,2,2,0,0,1,0-.45A2.18,2.18,0,0,1,36.65,10a2.68,2.68,0,0,1,1.12-.85A3,3,0,0,1,39,8.9a3.29,3.29,0,0,1,.91.16,4.85,4.85,0,0,1,.89.39,15.24,15.24,0,0,1,1.3.84,15.64,15.64,0,0,0,2.48,1.48,3.87,3.87,0,0,1-.92-3,3.53,3.53,0,0,1,1-2,4,4,0,0,1,1.2-.86,3,3,0,0,1,3.52.78,2.6,2.6,0,0,1,.46.89,2.25,2.25,0,0,1,.06,1A1.58,1.58,0,0,1,48.57,10a0.93,0.93,0,1,1,.52-1.7A1.49,1.49,0,0,0,49,7.79a1.82,1.82,0,0,0-.32-0.62,2.17,2.17,0,0,0-2.57-.56,3.23,3.23,0,0,0-1,.69,2.75,2.75,0,0,0-.75,1.56,3.08,3.08,0,0,0,.93,2.59,3.8,3.8,0,0,0,3.11.92c2.12-.28,3.58-2.19,5.15-4.25a16.45,16.45,0,0,1,4.91-4.84,7.79,7.79,0,0,1,4.37-1A6.36,6.36,0,0,1,66.77,4,5.55,5.55,0,0,1,68,5.62a5.38,5.38,0,0,1,.22.54,5.22,5.22,0,0,1,.23-0.54A5.56,5.56,0,0,1,69.59,4a6.36,6.36,0,0,1,3.88-1.67,7.78,7.78,0,0,1,4.37,1,16.48,16.48,0,0,1,4.91,4.84c1.57,2.06,3,4,5.15,4.25A3.8,3.8,0,0,0,91,11.45a3.09,3.09,0,0,0,.65-0.9,3,3,0,0,0,.28-1.68,2.74,2.74,0,0,0-.75-1.56,3.21,3.21,0,0,0-1-.69,2.17,2.17,0,0,0-2.57.56,1.81,1.81,0,0,0-.32.62,1.45,1.45,0,0,0-.06.49,0.93,0.93,0,1,1,.52,1.7,1.58,1.58,0,0,1-1.28-1.44,2.24,2.24,0,0,1,.06-1A2.59,2.59,0,0,1,87,6.68a3,3,0,0,1,3.52-.78,4,4,0,0,1,1.2.86,3.53,3.53,0,0,1,1,2,3.86,3.86,0,0,1-.92,3"/>
	</symbol>
	<symbol id="element" viewBox="0 0 238.74 15.22">
		<path d="M238.74,1.5H0V0H238.74V1.5Zm-15,10.85a2.36,2.36,0,0,0,2.15,1.37,3.14,3.14,0,0,0,3.14-3.14,4.11,4.11,0,0,0-4.12-4.11H13.8a4.11,4.11,0,0,0-4.12,4.11,3.14,3.14,0,0,0,3.14,3.14A2.36,2.36,0,0,0,15,12.35a2.05,2.05,0,0,1-2-1.75,1.77,1.77,0,0,1,1.77-1.77c1.35,0,2,1.37,2,2.53a3.87,3.87,0,0,1-3.87,3.87,4.65,4.65,0,0,1-4.64-4.65A5.62,5.62,0,0,1,13.8,5H224.93a5.62,5.62,0,0,1,5.62,5.62,4.65,4.65,0,0,1-4.64,4.65A3.87,3.87,0,0,1,222,11.35c0-1.16.64-2.53,2-2.53a1.77,1.77,0,1,1-.27,3.53"/>
	</symbol>

	<symbol id="step-1" viewBox="0 0 38 38">
		<path class="cls-1" d="M19,7.58a7.3,7.3,0,0,0-7.29,7.29v8.26a7.29,7.29,0,1,0,14.58,0V14.87A7.3,7.3,0,0,0,19,7.58Zm0,6.88a1,1,0,0,1-1-1V10.74a1,1,0,1,1,1.93,0v2.75A1,1,0,0,1,19,14.46Zm-0.41-6V9a1.77,1.77,0,0,0-1.38,1.7v2.75a1.76,1.76,0,0,0,1.38,1.7v0.64H12.53v-1A6.46,6.46,0,0,1,18.59,8.44ZM19,29.6a6.48,6.48,0,0,1-6.47-6.47V16.66H25.47v6.47A6.48,6.48,0,0,1,19,29.6Zm6.47-13.76H19.41V15.2a1.76,1.76,0,0,0,1.38-1.7V10.74A1.77,1.77,0,0,0,19.41,9V8.44a6.46,6.46,0,0,1,6.06,6.43v1Z"/>
	</symbol>
	<symbol id="step-2" viewBox="0 0 38 38">
		<path class="cls-1" d="M19,7A12,12,0,1,0,31,19,12,12,0,0,0,19,7ZM12.44,27.81c0.73-.27,1.53-0.54,2.24-0.78,2.45-.82,2.82-0.95,2.82-1.77V23.32l-0.84-.14a18.38,18.38,0,0,0-2.41-.24,1.74,1.74,0,0,1-1-.19A23.72,23.72,0,0,0,14.89,17l0.05,0L15,15.72a4,4,0,0,1,8,0L23.08,17h0a23.71,23.71,0,0,0,1.67,5.73,1.74,1.74,0,0,1-1,.19,13.65,13.65,0,0,0-2.47.34l-0.78.18v1.8c0,0.82.39,1,2.93,1.85l2.07,0.75A10.92,10.92,0,0,1,12.44,27.81Zm14-.68c-2-.81-4.89-1.69-4.89-1.87v-1a13.15,13.15,0,0,1,2.25-.31,2.38,2.38,0,0,0,2.25-1,19.81,19.81,0,0,1-2-7.29h0a5,5,0,0,0-10,0h0a19.81,19.81,0,0,1-2,7.29,2.38,2.38,0,0,0,2.25,1,17.66,17.66,0,0,1,2.25.23v1.08c0,0.19-2.92,1-5,1.82A11,11,0,1,1,26.39,27.12Z"/>
	</symbol>
	<symbol id="step-3" viewBox="0 0 38 38">
		<path class="cls-1" d="M24,16.26a0.41,0.41,0,0,0-.41.41v12.6H11.4V11.66h7.16a0.41,0.41,0,1,0,0-.82H11a0.41,0.41,0,0,0-.41.41V29.68a0.41,0.41,0,0,0,.41.41H24a0.41,0.41,0,0,0,.41-0.41v-13A0.41,0.41,0,0,0,24,16.26Z"/><path class="cls-1" d="M22.79,8.68L22,9.49l-9.56,9.57a0.4,0.4,0,0,0-.12.29V22.6a0.41,0.41,0,0,0,.41.41H16a0.41,0.41,0,0,0,.29-0.12L26.63,12.51a2.72,2.72,0,0,0,0-3.84A2.78,2.78,0,0,0,22.79,8.68ZM13.11,22.19V20.34L15,22.19H13.11ZM16,22l-2.68-2.68,9-9L24.94,13Zm9.56-9.56L22.85,9.78l0.23-.23,2.68,2.68Zm0.78-.85L23.69,9A1.94,1.94,0,0,1,26,9.25,1.9,1.9,0,0,1,26.31,11.61Z"/>
	</symbol>
	<symbol id="step-4" viewBox="0 0 38 38">
		<path class="cls-1" d="M29.15,14.71a4.21,4.21,0,0,0-6-6,0.39,0.39,0,0,0-.06.45,10.53,10.53,0,0,0-8.28,0,0.39,0.39,0,0,0-.06-0.45,4.21,4.21,0,0,0-6,6,0.41,0.41,0,0,0,.29.12,0.42,0.42,0,0,0,.15-0.06,10.52,10.52,0,0,0,3.34,12.53,1.59,1.59,0,0,0-.79.65,1.68,1.68,0,1,0,2.91,1.68,1.63,1.63,0,0,0,.18-1,10.54,10.54,0,0,0,8.14,0,1.64,1.64,0,0,0,.19,1,1.67,1.67,0,0,0,2.29.61A1.68,1.68,0,0,0,26.16,28a1.62,1.62,0,0,0-.79-0.65,10.52,10.52,0,0,0,3.34-12.54,0.42,0.42,0,0,0,.16.06A0.41,0.41,0,0,0,29.15,14.71ZM9.42,9.33a3.41,3.41,0,0,1,4.8,0,0.38,0.38,0,0,0,.19.08A10.6,10.6,0,0,0,9.5,14.33a0.38,0.38,0,0,0-.08-0.19A3.4,3.4,0,0,1,9.42,9.33ZM14,29.23a0.88,0.88,0,0,1-1.17.31,0.86,0.86,0,0,1-.4-0.52,0.85,0.85,0,0,1,.09-0.65A0.86,0.86,0,0,1,14,29.23Zm11.41-.86a0.86,0.86,0,0,1-.31,1.17A0.88,0.88,0,0,1,24,29.23a0.86,0.86,0,0,1,.32-1.17,0.85,0.85,0,0,1,.43-0.12A0.86,0.86,0,0,1,25.45,28.37Zm3.29-9.46A9.74,9.74,0,1,1,19,9.17,9.75,9.75,0,0,1,28.74,18.91Zm-0.16-4.77a0.37,0.37,0,0,0-.08.19,10.62,10.62,0,0,0-4.92-4.91,0.39,0.39,0,0,0,.19-0.08A3.4,3.4,0,1,1,28.58,14.13Z"/><path class="cls-1" d="M19,11A8,8,0,1,0,27,19,8,8,0,0,0,19,11Zm0,15.08A7.13,7.13,0,1,1,26.13,19,7.14,7.14,0,0,1,19,26.11Z"/><path class="cls-1" d="M19.41,18.84V14a0.41,0.41,0,1,0-.82,0v5a0.4,0.4,0,0,0,.12.29l2.37,2.37a0.41,0.41,0,0,0,.58-0.58Z"/>
	</symbol>

	<symbol id="price"  viewBox="0 0 24 29">
		<rect class="cls-1" x="6" y="13" width="12" height="1"/><rect class="cls-1" x="6" y="17" width="12" height="1"/><rect class="cls-1" x="6" y="21" width="8" height="1"/>
		<path class="cls-1" d="M15,3A3,3,0,1,0,9,3H0V29H24V3H15ZM10,5.3V3a2,2,0,1,1,4,0V5.3l0.51,0.29A5.09,5.09,0,0,1,16.67,8H7.33A5.08,5.08,0,0,1,9.5,5.58ZM23,28H1V4H9V4.71A6.1,6.1,0,0,0,6,9H18a6.09,6.09,0,0,0-3-4.29V4h8V28Z"/>
	</symbol>

	<symbol id="lg_footer" viewBox="0 0 318.87 134.02">
		<path class="cls-1" d="M257.33,60.81l1.13,0.27c2.79,0.72,4.36,2.64,5.23,5.27,0.51,1.54,1.05,3.06,1.57,4.6,0.64,1.88,1.81,3,3.94,2.81a2.73,2.73,0,0,1,.51.11,4,4,0,0,1-.63.17,4.49,4.49,0,0,1-4.73-2.73c-0.67-1.47-1.15-3-1.71-4.54-0.22-.61-0.42-1.23-0.66-1.83a5.73,5.73,0,0,0-5.07-3.88c-2-.16-3.93,0-6,0V74l-1,0V48.86h1V60.61h1.83l3.6,0a2.79,2.79,0,0,0,2.77-1.92c0.54-1.44,1-2.93,1.45-4.4,0.29-.87.52-1.78,0.89-2.61a4.46,4.46,0,0,1,5.1-2.62,5.76,5.76,0,0,1-.63.1,3.54,3.54,0,0,0-3.48,2.58c-0.57,1.7-1.06,3.43-1.58,5.15a5.37,5.37,0,0,1-3.49,4"/><path class="cls-2" d="M257.33,60.81l1.13,0.27c2.79,0.72,4.36,2.64,5.23,5.27,0.51,1.54,1.05,3.06,1.57,4.6,0.64,1.88,1.81,3,3.94,2.81a2.73,2.73,0,0,1,.51.11,4,4,0,0,1-.63.17,4.49,4.49,0,0,1-4.73-2.73c-0.67-1.47-1.15-3-1.71-4.54-0.22-.61-0.42-1.23-0.66-1.83a5.73,5.73,0,0,0-5.07-3.88c-2-.16-3.93,0-6,0V74l-1,0V48.86h1V60.61h1.83l3.6,0a2.79,2.79,0,0,0,2.77-1.92c0.54-1.44,1-2.93,1.45-4.4,0.29-.87.52-1.78,0.89-2.61a4.46,4.46,0,0,1,5.1-2.62,5.76,5.76,0,0,1-.63.1,3.54,3.54,0,0,0-3.48,2.58c-0.57,1.7-1.06,3.43-1.58,5.15A5.37,5.37,0,0,1,257.33,60.81Z"/><path class="cls-1" d="M179.75,54.75a1.78,1.78,0,0,1-.29-0.62c0-1.62,0-3.24,0-4.91H170V74.06h-1V49.19h-9.42V54.7h-0.2V48.93a0.58,0.58,0,0,1,.2-0.05h20.11v5.85Z"/><path class="cls-2" d="M179.75,54.75a1.78,1.78,0,0,1-.29-0.62c0-1.62,0-3.24,0-4.91H170V74.06h-1V49.19h-9.42V54.7h-0.2V48.93a0.58,0.58,0,0,1,.2-0.05h20.11v5.85Z"/><path class="cls-1" d="M184.39,48.85h16.76v5.8H201V49.17h-15.5V60.55h8.15c0,0.08,0,.15,0,0.23h-8.16V73.72h16.78V67.4h0.21v6.65H184.39V48.85Z"/><path class="cls-2" d="M184.39,48.85h16.76v5.8H201V49.17h-15.5V60.55h8.15c0,0.08,0,.15,0,0.23h-8.16V73.72h16.78V67.4h0.21v6.65H184.39V48.85Z"/><path class="cls-1" d="M301.35,49V60.18a1,1,0,0,0,.19.05c2.47,0,4.95,0,7.42,0a10.91,10.91,0,0,0,1.79-.16A5.54,5.54,0,0,0,315.43,56c0.71-3.3-1.14-6.27-4.55-6.66-3.13-.36-6.32-0.23-9.53-0.32m0,11.61V73.7a2.26,2.26,0,0,0,.32,0c2.67,0,5.35.09,8,0a12.8,12.8,0,0,0,3.76-.87,5.92,5.92,0,0,0,3.67-3.61,6,6,0,0,0-3.58-7.72,9.44,9.44,0,0,0-3.24-.83c-3-.11-5.93,0-8.94,0m-1.06-11.79c3.2,0,6.4,0,9.6,0a8.27,8.27,0,0,1,4.24,1.31,5.11,5.11,0,0,1-.22,9.13,28,28,0,0,1-2.65,1.13c0.55,0.15,1.07.27,1.58,0.42A9.41,9.41,0,0,1,317,63.14a5.6,5.6,0,0,1-.39,8.4A11.27,11.27,0,0,1,309.42,74c-3,.08-6.1,0-9.15,0V48.83Z"/><path class="cls-2" d="M301.35,49V60.18a1,1,0,0,0,.19.05c2.47,0,4.95,0,7.42,0a10.91,10.91,0,0,0,1.79-.16A5.54,5.54,0,0,0,315.43,56c0.71-3.3-1.14-6.27-4.55-6.66C307.74,49,304.56,49.1,301.35,49Zm0,11.61V73.7a2.26,2.26,0,0,0,.32,0c2.67,0,5.35.09,8,0a12.8,12.8,0,0,0,3.76-.87,5.92,5.92,0,0,0,3.67-3.61,6,6,0,0,0-3.58-7.72,9.44,9.44,0,0,0-3.24-.83C307.31,60.55,304.35,60.62,301.33,60.62Zm-1.06-11.79c3.2,0,6.4,0,9.6,0a8.27,8.27,0,0,1,4.24,1.31,5.11,5.11,0,0,1-.22,9.13,28,28,0,0,1-2.65,1.13c0.55,0.15,1.07.27,1.58,0.42A9.41,9.41,0,0,1,317,63.14a5.6,5.6,0,0,1-.39,8.4A11.27,11.27,0,0,1,309.42,74c-3,.08-6.1,0-9.15,0V48.83Z"/><path class="cls-1" d="M226.54,74a1.88,1.88,0,0,1-2-1c-2.73-3.73-5.52-7.41-8.29-11.11l-0.49-.64L205.56,74.06l-0.21-.17L215.52,61l-9-12.15a1.41,1.41,0,0,1,1.71.57c2.64,3.61,5.33,7.18,8.08,10.86l9.13-11.57,0.21,0.17-9.15,11.62,3,4,6.68,8.95a3.94,3.94,0,0,0,.41.41V74Z"/><path class="cls-2" d="M226.54,74a1.88,1.88,0,0,1-2-1c-2.73-3.73-5.52-7.41-8.29-11.11l-0.49-.64L205.56,74.06l-0.21-.17L215.52,61l-9-12.15a1.41,1.41,0,0,1,1.71.57c2.64,3.61,5.33,7.18,8.08,10.86l9.13-11.57,0.21,0.17-9.15,11.62,3,4,6.68,8.95a3.94,3.94,0,0,0,.41.41V74Z"/><path class="cls-1" d="M293.77,61.33a15.27,15.27,0,0,0-1.39-7.11,11.26,11.26,0,0,0-19.25-2,15,15,0,0,0-.37,16.45,11.19,11.19,0,0,0,17.92,1.07,12.8,12.8,0,0,0,3.09-8.43m-24.5-2.1a35.41,35.41,0,0,1,.88-3.53,12.81,12.81,0,0,1,24.17.49,27.39,27.39,0,0,1,.63,3.45c0,0.26.08,0.53,0.12,0.8V61c-0.19,1.2-.3,2.42-0.6,3.6a12.8,12.8,0,0,1-24.53.57c-0.3-1-.46-2-0.68-3v-3Z"/><path class="cls-2" d="M293.77,61.33a15.27,15.27,0,0,0-1.39-7.11,11.26,11.26,0,0,0-19.25-2,15,15,0,0,0-.37,16.45,11.19,11.19,0,0,0,17.92,1.07A12.8,12.8,0,0,0,293.77,61.33Zm-24.5-2.1a35.41,35.41,0,0,1,.88-3.53,12.81,12.81,0,0,1,24.17.49,27.39,27.39,0,0,1,.63,3.45c0,0.26.08,0.53,0.12,0.8V61c-0.19,1.2-.3,2.42-0.6,3.6a12.8,12.8,0,0,1-24.53.57c-0.3-1-.46-2-0.68-3v-3Z"/><path class="cls-1" d="M234.1,67.77c1.37-1.08,2.74-2,3.93-3.14a6.82,6.82,0,0,0,1.5-2.36c1.05-2.58.29-4.8-1.95-5.61a6.48,6.48,0,0,0-2.69-.29,4.55,4.55,0,0,0-4.31,5.23c0.21,2.51,1.8,4.22,3.52,6.18m-1,.64c-1.47,1-2.94,2-4.3,3a8.89,8.89,0,0,0-2.86,4.08c-1.36,3.88-.18,7.68,3,9.47a9,9,0,0,0,6.28.78,16.2,16.2,0,0,0,8.73-5L233.08,68.41M250.92,74A54.61,54.61,0,0,1,246,79.18c-0.36.36-.56,0.59-1,1l4.84,5.52a1.88,1.88,0,0,1-2.14-.53c-1.1-1.39-2.31-2.68-3.56-4.12l-0.83.78c-2.68,2.52-5.69,4.41-9.46,4.76s-7.73-1-9.33-4.65c-0.26-.59-0.42-1.21-0.63-1.82V78c0.95-4.64,4.37-7.1,8.16-9.22l0.85-.46c-0.72-.89-1.45-1.7-2.09-2.58a6.38,6.38,0,0,1-1.36-4.82A5.66,5.66,0,0,1,234.9,56a9.27,9.27,0,0,1,2.64.17c3.31,0.76,4.67,3.93,2.83,6.78a13.91,13.91,0,0,1-3,3,30.79,30.79,0,0,1-3.12,2l10.44,11.92c2.75-2.41,4.2-3.68,5.35-6.56l0.81,0.61c0,0.06.06,0,.06,0.1"/><path class="cls-2" d="M234.1,67.77c1.37-1.08,2.74-2,3.93-3.14a6.82,6.82,0,0,0,1.5-2.36c1.05-2.58.29-4.8-1.95-5.61a6.48,6.48,0,0,0-2.69-.29,4.55,4.55,0,0,0-4.31,5.23C230.8,64.1,232.38,65.81,234.1,67.77Zm-1,.64c-1.47,1-2.94,2-4.3,3a8.89,8.89,0,0,0-2.86,4.08c-1.36,3.88-.18,7.68,3,9.47a9,9,0,0,0,6.28.78,16.2,16.2,0,0,0,8.73-5ZM250.92,74A54.61,54.61,0,0,1,246,79.18c-0.36.36-.56,0.59-1,1l4.84,5.52a1.88,1.88,0,0,1-2.14-.53c-1.1-1.39-2.31-2.68-3.56-4.12l-0.83.78c-2.68,2.52-5.69,4.41-9.46,4.76s-7.73-1-9.33-4.65c-0.26-.59-0.42-1.21-0.63-1.82V78c0.95-4.64,4.37-7.1,8.16-9.22l0.85-.46c-0.72-.89-1.45-1.7-2.09-2.58a6.38,6.38,0,0,1-1.36-4.82A5.66,5.66,0,0,1,234.9,56a9.27,9.27,0,0,1,2.64.17c3.31,0.76,4.67,3.93,2.83,6.78a13.91,13.91,0,0,1-3,3,30.79,30.79,0,0,1-3.12,2l10.44,11.92c2.75-2.41,4.2-3.68,5.35-6.56l0.81,0.61C250.87,74,250.92,74,250.92,74Z"/><path class="cls-1" d="M90.16,35.35A3.9,3.9,0,0,1,89.52,34c-0.05-3.57,0,.08,0-3.6H68.78v74H66.61v-74H45.86v4.91H45.42V29.76a1.34,1.34,0,0,1,.45-0.12l44.29,0v5.67Z"/><path class="cls-3" d="M90.16,35.35A3.9,3.9,0,0,1,89.52,34c-0.05-3.57,0,.08,0-3.6H68.78v74H66.61v-74H45.86v4.91H45.42V29.76a1.34,1.34,0,0,1,.45-0.12l44.29,0v5.67Z"/><path class="cls-1" d="M67.42,61.88c2-1.56,4-2.92,5.68-4.55a9.86,9.86,0,0,0,2.17-3.42c1.52-3.74.42-7-2.82-8.13a9.42,9.42,0,0,0-3.89-.42c-4.12.35-6.59,3.47-6.24,7.57,0.31,3.63,2.6,6.11,5.09,8.94m-1.48.93c-2.14,1.5-4.26,2.85-6.22,4.41a12.84,12.84,0,0,0-4.14,5.91c-2,5.61-.26,11.12,4.29,13.7A13,13,0,0,0,69,88C74,87,78.07,84.34,81.61,80.69L65.94,62.81m25.75,3.84c-2.41,3.87-4.81,7.74-7.23,11.6a18.09,18.09,0,0,1-1.28,1.59l7,8c-1.24.21-2.21,0.35-3.09-.77-1.59-2-3.34-3.89-5.15-6l-1.2,1.13C76.85,85.89,72.5,88.63,67,89.13s-11.2-1.52-13.5-6.74c-0.37-.85-0.61-1.75-0.92-2.63V76.68C54,70,58.95,66.4,64.44,63.32c0.4-.22.8-0.43,1.24-0.66-1-1.28-2.1-2.46-3-3.74a9.23,9.23,0,0,1-2-7,8.19,8.19,0,0,1,7.9-7.1,13.36,13.36,0,0,1,3.82.24c4.78,1.1,6.76,5.68,4.09,9.82a20.19,20.19,0,0,1-4.31,4.3,45.1,45.1,0,0,1-4.52,2.91L82.77,79.38a42.34,42.34,0,0,0,7.75-13.88l1.17,0.89v0.26Z"/><path class="cls-3" d="M67.42,61.88c2-1.56,4-2.92,5.68-4.55a9.86,9.86,0,0,0,2.17-3.42c1.52-3.74.42-7-2.82-8.13a9.42,9.42,0,0,0-3.89-.42c-4.12.35-6.59,3.47-6.24,7.57C62.64,56.58,64.93,59.06,67.42,61.88Zm-1.48.93c-2.14,1.5-4.26,2.85-6.22,4.41a12.84,12.84,0,0,0-4.14,5.91c-2,5.61-.26,11.12,4.29,13.7A13,13,0,0,0,69,88C74,87,78.07,84.34,81.61,80.69Zm25.75,3.84c-2.41,3.87-4.81,7.74-7.23,11.6a18.09,18.09,0,0,1-1.28,1.59l7,8c-1.24.21-2.21,0.35-3.09-.77-1.59-2-3.34-3.89-5.15-6l-1.2,1.13C76.85,85.89,72.5,88.63,67,89.13s-11.2-1.52-13.5-6.74c-0.37-.85-0.61-1.75-0.92-2.63V76.68C54,70,58.95,66.4,64.44,63.32c0.4-.22.8-0.43,1.24-0.66-1-1.28-2.1-2.46-3-3.74a9.23,9.23,0,0,1-2-7,8.19,8.19,0,0,1,7.9-7.1,13.36,13.36,0,0,1,3.82.24c4.78,1.1,6.76,5.68,4.09,9.82a20.19,20.19,0,0,1-4.31,4.3,45.1,45.1,0,0,1-4.52,2.91L82.77,79.38a42.34,42.34,0,0,0,7.75-13.88l1.17,0.89v0.26Z"/><path class="cls-1" d="M68.18,0c-0.52,0-.94.86-0.94,1.93s0.42,1.93.94,1.93,0.94-.86.94-1.93S68.7,0,68.18,0m-58,33.5c-0.26.45,0.28,1.25,1.2,1.78s1.88,0.6,2.14.15-0.27-1.25-1.2-1.78-1.88-.6-2.14-0.15m0,67c0.26,0.45,1.22.38,2.14-.15s1.46-1.33,1.2-1.78-1.22-.38-2.14.15-1.46,1.33-1.2,1.78m58,33.5c0.52,0,.94-0.86.94-1.93s-0.42-1.93-.94-1.93-0.94.86-.94,1.93,0.42,1.93.94,1.93m58-33.5c0.26-.45-0.28-1.25-1.2-1.78s-1.88-.6-2.14-0.15,0.28,1.25,1.2,1.78,1.88,0.6,2.14.15m0-67c-0.26-.45-1.22-0.39-2.14.15s-1.46,1.33-1.2,1.78,1.22,0.39,2.14-.15,1.46-1.33,1.2-1.78m-26.8-20.6a1.84,1.84,0,0,1-.35.24c-0.69.35-2,.33-2-0.74a0.93,0.93,0,0,1,1.86-.08,1.39,1.39,0,0,0,.5-1.07,1.41,1.41,0,0,0-.3-0.81,1.9,1.9,0,0,0-.79-0.59,2.25,2.25,0,0,0-.91-0.17,2.51,2.51,0,0,0-.69.12,4.06,4.06,0,0,0-.75.32c-0.37.2-.78,0.48-1.23,0.79-1.53,1.05-3.48,2.39-6.18,2.26a5.12,5.12,0,0,1-.74,0c-2.44-.33-4-2.36-5.67-4.55A15.9,15.9,0,0,0,77.46,4a7,7,0,0,0-3.93-.87,5.57,5.57,0,0,0-3.4,1.46,4.78,4.78,0,0,0-1.45,4A4.3,4.3,0,0,0,69.85,11a5.08,5.08,0,0,0,1.5,1.07,3.49,3.49,0,0,0,2.23.23,3.19,3.19,0,0,0,1.84-1.12,2.9,2.9,0,0,0,.52-1,2.39,2.39,0,0,0,.07-1,2.05,2.05,0,0,0-.15-0.51,2.46,2.46,0,0,0-1-1.11,2.23,2.23,0,0,0-1.43-.29,1.72,1.72,0,0,0-.45.13,1.61,1.61,0,0,0-.69.59,0.93,0.93,0,0,1-.08,1.86c-1.22,0-1-1.57-.6-2.25a2.4,2.4,0,0,1,1.05-.91,2.54,2.54,0,0,1,.65-0.19,3,3,0,0,1,1.94.39,3.24,3.24,0,0,1,1.35,1.47,2.81,2.81,0,0,1,.21.71,3.17,3.17,0,0,1-.09,1.36A3.72,3.72,0,0,1,76,11.68a4,4,0,0,1-2.29,1.4A4.28,4.28,0,0,1,71,12.79a5.89,5.89,0,0,1-1.74-1.24,5.14,5.14,0,0,1-1.1-1.76,5.06,5.06,0,0,1-1.1,1.76,5.84,5.84,0,0,1-1.74,1.24,4.28,4.28,0,0,1-2.73.29,4,4,0,0,1-2.29-1.4,3.68,3.68,0,0,1-.65-1.26,3.17,3.17,0,0,1-.09-1.36,2.84,2.84,0,0,1,.21-0.71,3.25,3.25,0,0,1,1.35-1.47,3,3,0,0,1,1.94-.39,2.54,2.54,0,0,1,.65.19,2.4,2.4,0,0,1,1.05.91c0.42,0.68.62,2.25-.6,2.25A0.93,0.93,0,0,1,64.11,8a1.61,1.61,0,0,0-.69-0.59A1.74,1.74,0,0,0,63,7.27a2.23,2.23,0,0,0-1.44.29,2.47,2.47,0,0,0-1,1.11,2.09,2.09,0,0,0-.15.51,2.39,2.39,0,0,0,.07,1,2.92,2.92,0,0,0,.52,1,3.19,3.19,0,0,0,1.84,1.12A3.49,3.49,0,0,0,65,12.08,5.07,5.07,0,0,0,66.51,11a4.3,4.3,0,0,0,1.17-2.44A4.74,4.74,0,0,0,67.24,6a4.8,4.8,0,0,0-1-1.41,5.58,5.58,0,0,0-3.4-1.46A7,7,0,0,0,58.9,4a15.88,15.88,0,0,0-4.66,4.62c-1.67,2.19-3.22,4.22-5.67,4.55a5.13,5.13,0,0,1-.74,0c-2.7.14-4.64-1.2-6.18-2.26-0.45-.31-0.86-0.59-1.23-0.79a4.11,4.11,0,0,0-.75-0.32A2.52,2.52,0,0,0,39,9.69a2.23,2.23,0,0,0-.91.17,1.89,1.89,0,0,0-.79.59,1.4,1.4,0,0,0-.3.81,1.27,1.27,0,0,0,.1.53,1.31,1.31,0,0,0,.4.54,0.93,0.93,0,0,1,1.86.08c0,1.07-1.35,1.09-2,.74a1.9,1.9,0,0,1-.36-0.24,1.9,1.9,0,0,1,0,.43c0,0.78-.73,1.93-1.66,1.4a0.93,0.93,0,0,1,.86-1.64,1.32,1.32,0,0,0-.27-0.62,1.3,1.3,0,0,0-.41-0.35A1.39,1.39,0,0,0,34.64,12a1.88,1.88,0,0,0-.91.38,2.23,2.23,0,0,0-.6.71,2.49,2.49,0,0,0-.24.66,4.22,4.22,0,0,0-.09.81c0,0.42,0,.92.07,1.46,0.15,1.86.33,4.21-1.13,6.48a5.07,5.07,0,0,1-.41.62c-1.5,2-4,2.28-6.77,2.63a15.84,15.84,0,0,0-6.34,1.73,7,7,0,0,0-2.72,3,5.57,5.57,0,0,0-.44,3.67,4.8,4.8,0,0,0,2.76,3.26,4.3,4.3,0,0,0,2.7.21,5,5,0,0,0,1.68-.77A3.48,3.48,0,0,0,23.51,35a3.19,3.19,0,0,0-.05-2.15,2.91,2.91,0,0,0-.6-0.94A2.35,2.35,0,0,0,22,31.32a1.92,1.92,0,0,0-.52-0.12,2.46,2.46,0,0,0-1.47.33,2.23,2.23,0,0,0-1,1.09,1.74,1.74,0,0,0-.11.46,1.6,1.6,0,0,0,.16.9,0.93,0.93,0,0,1,1.57,1c-0.61,1.06-1.87.09-2.25-.6A2.4,2.4,0,0,1,18.16,33a2.57,2.57,0,0,1,.16-0.66,3,3,0,0,1,1.31-1.49,3.24,3.24,0,0,1,1.95-.44,2.85,2.85,0,0,1,.72.17,3.15,3.15,0,0,1,1.13.76,3.7,3.7,0,0,1,.76,1.2,4,4,0,0,1,.07,2.68,4.28,4.28,0,0,1-1.62,2.22,5.86,5.86,0,0,1-1.94.89,5.08,5.08,0,0,1-2.08.07,5.06,5.06,0,0,1,1,1.83,5.86,5.86,0,0,1,.2,2.12,4.28,4.28,0,0,1-1.11,2.51,4,4,0,0,1-2.36,1.28,3.7,3.7,0,0,1-1.42-.06,3.15,3.15,0,0,1-1.22-.6,2.79,2.79,0,0,1-.51-0.54,3.25,3.25,0,0,1-.6-1.91,3,3,0,0,1,.64-1.88,2.55,2.55,0,0,1,.49-0.47A2.38,2.38,0,0,1,15,40.24c0.79,0,2.26.58,1.65,1.64A0.93,0.93,0,0,1,15,41a1.61,1.61,0,0,0-.86.3,1.78,1.78,0,0,0-.34.33A2.22,2.22,0,0,0,13.38,43a2.45,2.45,0,0,0,.45,1.44,2,2,0,0,0,.37.39,2.36,2.36,0,0,0,.92.45,2.89,2.89,0,0,0,1.11,0,3.2,3.2,0,0,0,1.89-1,3.49,3.49,0,0,0,.91-2,5,5,0,0,0-.17-1.83,4.3,4.3,0,0,0-1.53-2.23,4.75,4.75,0,0,0-2.48-.94,4.8,4.8,0,0,0-1.73.18,5.58,5.58,0,0,0-3,2.22,7,7,0,0,0-1.21,3.84,15.85,15.85,0,0,0,1.67,6.35c1.06,2.54,2,4.9,1.11,7.19a4.92,4.92,0,0,1-.33.67c-1.23,2.41-3.36,3.42-5,4.22-0.49.23-.94,0.45-1.3,0.67a4.12,4.12,0,0,0-.65.48,2.5,2.5,0,0,0-.45.54,2.26,2.26,0,0,0-.31.87,1.86,1.86,0,0,0,.12,1,1.4,1.4,0,0,0,.55.66,1.4,1.4,0,0,0,1.18.11,0.93,0.93,0,0,1,1-1.57c0.93,0.53.27,1.71-.38,2.13a1.92,1.92,0,0,1-.39.19,1.86,1.86,0,0,1,.39.19c0.65,0.42,1.31,1.6.38,2.13a0.93,0.93,0,0,1-1-1.57,1.34,1.34,0,0,0-.67-0.07,1.31,1.31,0,0,0-.51.18,1.4,1.4,0,0,0-.56.66,1.89,1.89,0,0,0-.12,1,2.25,2.25,0,0,0,.31.87,2.47,2.47,0,0,0,.45.54A4,4,0,0,0,5,71.4c0.36,0.22.81,0.44,1.3,0.67,1.68,0.8,3.81,1.81,5,4.22a5.1,5.1,0,0,1,.33.67c0.94,2.28,0,4.64-1.11,7.19a15.84,15.84,0,0,0-1.67,6.35,7,7,0,0,0,1.21,3.84,5.58,5.58,0,0,0,3,2.22,4.82,4.82,0,0,0,1.73.18,4.74,4.74,0,0,0,2.48-.94,4.29,4.29,0,0,0,1.53-2.23A5.06,5.06,0,0,0,19,91.72a3.5,3.5,0,0,0-.91-2,3.19,3.19,0,0,0-1.89-1,2.91,2.91,0,0,0-1.11,0,2.38,2.38,0,0,0-.92.45,2,2,0,0,0-.36.39A2.45,2.45,0,0,0,13.38,91a2.23,2.23,0,0,0,.46,1.39,1.86,1.86,0,0,0,.34.32A1.6,1.6,0,0,0,15,93a0.93,0.93,0,0,1,1.65-.86c0.61,1.06-.85,1.67-1.65,1.64a2.39,2.39,0,0,1-1.32-.45,2.58,2.58,0,0,1-.49-0.47A3,3,0,0,1,12.59,91a3.25,3.25,0,0,1,.6-1.91,2.79,2.79,0,0,1,.51-0.54,3.16,3.16,0,0,1,1.22-.6,3.68,3.68,0,0,1,1.42-.06,4,4,0,0,1,2.36,1.28,4.28,4.28,0,0,1,1.11,2.51,5.85,5.85,0,0,1-.2,2.12,5.06,5.06,0,0,1-1,1.83,5.07,5.07,0,0,1,2.08.07,5.88,5.88,0,0,1,1.94.89,4.28,4.28,0,0,1,1.62,2.22,4,4,0,0,1-.07,2.68,3.67,3.67,0,0,1-.76,1.19,3.18,3.18,0,0,1-1.13.76,2.85,2.85,0,0,1-.72.17,3.24,3.24,0,0,1-1.95-.44,3,3,0,0,1-1.31-1.49,2.58,2.58,0,0,1-.16-0.66,2.39,2.39,0,0,1,.27-1.37c0.38-.7,1.64-1.66,2.25-0.61a0.93,0.93,0,0,1-1.57,1,1.61,1.61,0,0,0-.16.9,1.77,1.77,0,0,0,.11.46,2.23,2.23,0,0,0,1,1.09,2.47,2.47,0,0,0,1.47.33A2,2,0,0,0,22,102.7a2.4,2.4,0,0,0,.85-0.57,2.89,2.89,0,0,0,.6-0.94A3.18,3.18,0,0,0,23.51,99a3.49,3.49,0,0,0-1.32-1.81,5.06,5.06,0,0,0-1.68-.77,4.29,4.29,0,0,0-2.7.21,4.74,4.74,0,0,0-2.05,1.68,4.79,4.79,0,0,0-.71,1.58,5.57,5.57,0,0,0,.44,3.67,7,7,0,0,0,2.72,3,15.88,15.88,0,0,0,6.34,1.73c2.73,0.35,5.27.68,6.77,2.63a5,5,0,0,1,.41.62c1.47,2.27,1.28,4.62,1.13,6.48,0,0.54-.08,1-0.07,1.46a4.24,4.24,0,0,0,.09.81,2.57,2.57,0,0,0,.24.66,2.25,2.25,0,0,0,.6.7,1.9,1.9,0,0,0,.91.38,1.41,1.41,0,0,0,.85-0.15,1.31,1.31,0,0,0,.41-0.35,1.33,1.33,0,0,0,.27-0.61,0.93,0.93,0,0,1-.86-1.65c0.93-.53,1.62.62,1.66,1.4a1.86,1.86,0,0,1,0,.43,1.89,1.89,0,0,1,.36-0.24c0.69-.35,2-0.33,2,0.74a0.93,0.93,0,0,1-1.86.07,1.34,1.34,0,0,0-.4.54,1.3,1.3,0,0,0-.1.53,1.4,1.4,0,0,0,.3.81,1.87,1.87,0,0,0,.79.6,2.25,2.25,0,0,0,.91.17,2.53,2.53,0,0,0,.69-0.12,4.22,4.22,0,0,0,.75-0.32c0.37-.2.78-0.49,1.23-0.8,1.53-1.05,3.48-2.39,6.18-2.26a5.14,5.14,0,0,1,.74,0c2.44,0.33,4,2.36,5.67,4.55A15.89,15.89,0,0,0,58.9,130a7,7,0,0,0,3.93.87,5.57,5.57,0,0,0,3.4-1.46,4.79,4.79,0,0,0,1.44-4A4.3,4.3,0,0,0,66.51,123a5.05,5.05,0,0,0-1.5-1.07,3.49,3.49,0,0,0-2.23-.23,3.18,3.18,0,0,0-1.84,1.12,2.89,2.89,0,0,0-.51,1,2.38,2.38,0,0,0-.07,1,2,2,0,0,0,.15.51,2.46,2.46,0,0,0,1,1.11,2.23,2.23,0,0,0,1.43.3,1.77,1.77,0,0,0,.45-0.13,1.59,1.59,0,0,0,.69-0.59,0.93,0.93,0,0,1,.08-1.85c1.22,0,1,1.57.6,2.25a2.39,2.39,0,0,1-1.05.91,2.55,2.55,0,0,1-.65.19,3,3,0,0,1-1.94-.39,3.25,3.25,0,0,1-1.35-1.47,2.74,2.74,0,0,1-.21-0.71,3.15,3.15,0,0,1,.09-1.36,3.69,3.69,0,0,1,.65-1.26,4,4,0,0,1,2.29-1.4,4.28,4.28,0,0,1,2.73.29,5.84,5.84,0,0,1,1.74,1.24,5.07,5.07,0,0,1,1.1,1.76,5.1,5.1,0,0,1,1.1-1.76A5.89,5.89,0,0,1,71,121.22a4.28,4.28,0,0,1,2.73-.29,4,4,0,0,1,2.29,1.4,3.72,3.72,0,0,1,.65,1.26,3.14,3.14,0,0,1,.09,1.36,2.78,2.78,0,0,1-.21.71,3.25,3.25,0,0,1-1.35,1.47,3,3,0,0,1-1.94.39,2.53,2.53,0,0,1-.65-0.19,2.4,2.4,0,0,1-1.05-.91c-0.42-.68-0.62-2.25.6-2.25a0.93,0.93,0,0,1,.08,1.85,1.62,1.62,0,0,0,.69.59,1.85,1.85,0,0,0,.45.13,2.23,2.23,0,0,0,1.43-.3,2.47,2.47,0,0,0,1-1.11,2,2,0,0,0,.15-0.51,2.39,2.39,0,0,0-.07-1,2.9,2.9,0,0,0-.52-1,3.19,3.19,0,0,0-1.84-1.12,3.5,3.5,0,0,0-2.23.23,5.09,5.09,0,0,0-1.5,1.07,4.3,4.3,0,0,0-1.16,2.44,4.75,4.75,0,0,0,.43,2.62,4.81,4.81,0,0,0,1,1.41,5.57,5.57,0,0,0,3.4,1.46,7,7,0,0,0,3.93-.87,15.9,15.9,0,0,0,4.67-4.62c1.67-2.19,3.22-4.22,5.67-4.55a5.15,5.15,0,0,1,.74,0c2.7-.13,4.65,1.2,6.18,2.26,0.45,0.31.86,0.59,1.23,0.8a4.4,4.4,0,0,0,.75.32,2.52,2.52,0,0,0,.69.12,2.26,2.26,0,0,0,.91-0.17,1.89,1.89,0,0,0,.79-0.6,1.41,1.41,0,0,0,.3-0.81,1.34,1.34,0,0,0-.1-0.53,1.37,1.37,0,0,0-.4-0.54,0.93,0.93,0,0,1-1.85-.07c0-1.07,1.35-1.09,2-.74a1.83,1.83,0,0,1,.36.24,1.88,1.88,0,0,1,0-.43c0-.78.73-1.93,1.66-1.39a0.93,0.93,0,0,1-.86,1.65,1.39,1.39,0,0,0,.68,1,1.42,1.42,0,0,0,.85.15,1.88,1.88,0,0,0,.91-0.38,2.23,2.23,0,0,0,.6-0.7,2.49,2.49,0,0,0,.24-0.66,4.17,4.17,0,0,0,.09-0.81c0-.42,0-0.92-0.07-1.46-0.15-1.85-.33-4.21,1.13-6.48a5.09,5.09,0,0,1,.41-0.62c1.5-2,4-2.28,6.77-2.63a15.89,15.89,0,0,0,6.34-1.73,7,7,0,0,0,2.72-3,5.57,5.57,0,0,0,.44-3.67,4.8,4.8,0,0,0-.71-1.58,4.73,4.73,0,0,0-2.05-1.68,4.29,4.29,0,0,0-2.69-.21,5,5,0,0,0-1.68.77A3.48,3.48,0,0,0,112.84,99a3.2,3.2,0,0,0,.05,2.15,2.93,2.93,0,0,0,.6.94,2.36,2.36,0,0,0,.85.57,2,2,0,0,0,.52.12,2.45,2.45,0,0,0,1.47-.33,2.22,2.22,0,0,0,1-1.09,1.74,1.74,0,0,0,.11-0.46,1.58,1.58,0,0,0-.17-0.9,0.93,0.93,0,0,1-1.56-1c0.61-1.06,1.87-.09,2.25.61a2.38,2.38,0,0,1,.26,1.37,2.55,2.55,0,0,1-.16.66,3,3,0,0,1-1.31,1.49,3.25,3.25,0,0,1-2,.44,2.78,2.78,0,0,1-.72-0.17,3.16,3.16,0,0,1-1.13-.76,3.67,3.67,0,0,1-.76-1.19,4,4,0,0,1-.07-2.68,4.28,4.28,0,0,1,1.62-2.22,5.86,5.86,0,0,1,1.94-.89,5.07,5.07,0,0,1,2.08-.07,5.05,5.05,0,0,1-1-1.83,5.87,5.87,0,0,1-.2-2.12,4.28,4.28,0,0,1,1.11-2.51A4,4,0,0,1,120,87.87a3.7,3.7,0,0,1,1.42.06,3.14,3.14,0,0,1,1.22.6,2.84,2.84,0,0,1,.51.54,3.25,3.25,0,0,1,.6,1.91,3,3,0,0,1-.64,1.88,2.5,2.5,0,0,1-.49.47,2.4,2.4,0,0,1-1.32.46c-0.79,0-2.26-.59-1.65-1.64a0.93,0.93,0,0,1,1.65.86,1.59,1.59,0,0,0,.86-0.3,1.74,1.74,0,0,0,.34-0.32A2.24,2.24,0,0,0,123,91a2.47,2.47,0,0,0-.45-1.44,2.09,2.09,0,0,0-.36-0.39,2.41,2.41,0,0,0-.92-0.45,2.88,2.88,0,0,0-1.11,0,3.18,3.18,0,0,0-1.89,1,3.49,3.49,0,0,0-.91,2,5.08,5.08,0,0,0,.17,1.84A4.32,4.32,0,0,0,119,95.79a4.73,4.73,0,0,0,2.48.94,4.81,4.81,0,0,0,1.73-.18,5.58,5.58,0,0,0,3-2.22,7,7,0,0,0,1.21-3.84,15.87,15.87,0,0,0-1.67-6.35c-1.06-2.54-2-4.9-1.11-7.18a5.08,5.08,0,0,1,.33-0.67c1.23-2.41,3.36-3.42,5-4.22,0.49-.23.94-0.45,1.3-0.67a4.19,4.19,0,0,0,.65-0.48,2.5,2.5,0,0,0,.45-0.54,2.24,2.24,0,0,0,.31-0.87,1.91,1.91,0,0,0-.12-1,1.4,1.4,0,0,0-.56-0.66,1.29,1.29,0,0,0-.51-0.18,1.34,1.34,0,0,0-.67.07,0.93,0.93,0,0,1-1,1.57c-0.93-.54-0.27-1.71.38-2.13a2,2,0,0,1,.39-0.19,1.93,1.93,0,0,1-.39-0.19c-0.65-.42-1.31-1.6-0.38-2.13a0.93,0.93,0,0,1,1,1.57,1.32,1.32,0,0,0,.67.07,1.28,1.28,0,0,0,.51-0.18,1.41,1.41,0,0,0,.56-0.66,1.9,1.9,0,0,0,.12-1,2.26,2.26,0,0,0-.31-0.87A2.51,2.51,0,0,0,132,63.1a4.24,4.24,0,0,0-.65-0.48c-0.36-.22-0.81-0.43-1.3-0.67-1.68-.8-3.81-1.82-5-4.22a5,5,0,0,1-.33-0.67c-0.94-2.28,0-4.64,1.11-7.18a15.86,15.86,0,0,0,1.67-6.35,7,7,0,0,0-1.21-3.84,5.59,5.59,0,0,0-3-2.22,4.78,4.78,0,0,0-1.73-.17,4.72,4.72,0,0,0-2.48.94,4.3,4.3,0,0,0-1.53,2.23,5.08,5.08,0,0,0-.17,1.83,3.49,3.49,0,0,0,.91,2,3.18,3.18,0,0,0,1.89,1,2.88,2.88,0,0,0,1.11,0,2.4,2.4,0,0,0,.92-0.45,2.13,2.13,0,0,0,.36-0.39A2.47,2.47,0,0,0,123,43a2.23,2.23,0,0,0-.46-1.39,1.79,1.79,0,0,0-.34-0.33,1.61,1.61,0,0,0-.86-0.3,0.93,0.93,0,0,1-1.65.86c-0.61-1.06.85-1.67,1.65-1.64a2.38,2.38,0,0,1,1.32.45,2.5,2.5,0,0,1,.49.47,3,3,0,0,1,.64,1.88,3.25,3.25,0,0,1-.6,1.91,2.79,2.79,0,0,1-.51.54,3.15,3.15,0,0,1-1.22.6,3.7,3.7,0,0,1-1.42.06,4,4,0,0,1-2.36-1.28,4.28,4.28,0,0,1-1.11-2.51,5.87,5.87,0,0,1,.2-2.12,5.06,5.06,0,0,1,1-1.83,5.08,5.08,0,0,1-2.08-.07,5.87,5.87,0,0,1-1.94-.89,4.28,4.28,0,0,1-1.62-2.22,4,4,0,0,1,.07-2.68,3.68,3.68,0,0,1,.76-1.2,3.14,3.14,0,0,1,1.13-.76,2.85,2.85,0,0,1,.72-0.17,3.26,3.26,0,0,1,2,.44A3,3,0,0,1,118,32.34a2.54,2.54,0,0,1,.16.66,2.38,2.38,0,0,1-.26,1.37c-0.38.7-1.64,1.66-2.25,0.6a0.93,0.93,0,0,1,1.56-1,1.58,1.58,0,0,0,.17-0.89,1.75,1.75,0,0,0-.11-0.46,2.23,2.23,0,0,0-1-1.09,2.46,2.46,0,0,0-1.47-.33,2,2,0,0,0-.52.12,2.39,2.39,0,0,0-.85.57,2.89,2.89,0,0,0-.6.94,3.2,3.2,0,0,0-.05,2.15,3.48,3.48,0,0,0,1.32,1.81,5.06,5.06,0,0,0,1.68.77,4.3,4.3,0,0,0,2.69-.21,4.74,4.74,0,0,0,2.05-1.68,4.8,4.8,0,0,0,.71-1.58,5.58,5.58,0,0,0-.44-3.67,7,7,0,0,0-2.72-3,15.87,15.87,0,0,0-6.34-1.73c-2.73-.35-5.27-0.68-6.77-2.63a5.27,5.27,0,0,1-.41-0.62c-1.47-2.27-1.28-4.62-1.13-6.48,0-.54.08-1,0.07-1.46a4.17,4.17,0,0,0-.09-0.81,2.48,2.48,0,0,0-.24-0.66,2.23,2.23,0,0,0-.6-0.71,1.9,1.9,0,0,0-.91-0.38,1.4,1.4,0,0,0-.85.15,1.31,1.31,0,0,0-.41.35,1.36,1.36,0,0,0-.27.62,0.93,0.93,0,0,1,.86,1.65c-0.93.54-1.62-.62-1.66-1.39a1.9,1.9,0,0,1,0-.43M34.09,8a1.25,1.25,0,1,0,1.71.46A1.25,1.25,0,0,0,34.09,8M0,67a1.25,1.25,0,1,0,1.25-1.25A1.25,1.25,0,0,0,0,67m34.09,59a1.25,1.25,0,1,0-.46-1.71,1.25,1.25,0,0,0,.46,1.71m68.18,0a1.25,1.25,0,1,0-1.71-.46,1.25,1.25,0,0,0,1.71.46m34.09-59a1.25,1.25,0,1,0-1.25,1.25A1.25,1.25,0,0,0,136.35,67M102.27,8a1.25,1.25,0,1,0,.46,1.71A1.25,1.25,0,0,0,102.27,8m-10.48,3.8a15.68,15.68,0,0,0,2.48-1.48,15.12,15.12,0,0,1,1.3-.84,4.85,4.85,0,0,1,.89-0.39,3.29,3.29,0,0,1,.91-0.16,3,3,0,0,1,1.22.22A2.68,2.68,0,0,1,99.7,10a2.18,2.18,0,0,1,.45,1.27,2,2,0,0,1,0,.44,2,2,0,0,1,.36-0.25,2.19,2.19,0,0,1,1.33-.24,2.68,2.68,0,0,1,1.29.54,3,3,0,0,1,.8.95,3.29,3.29,0,0,1,.32.87,5.06,5.06,0,0,1,.11,1c0,0.47,0,1-.07,1.55a15.65,15.65,0,0,0,0,2.89A3.77,3.77,0,0,1,104.7,18a3.82,3.82,0,0,1,1.66-1.36,3.54,3.54,0,0,1,2.21-.18,4.06,4.06,0,0,1,1.34.61A3,3,0,0,1,111,20.52a2.6,2.6,0,0,1-.54.84,2.25,2.25,0,0,1-.81.54,1.58,1.58,0,0,1-1.89-.38,0.93,0.93,0,1,1,1.73-.41,1.48,1.48,0,0,0,.39-0.3,1.82,1.82,0,0,0,.37-0.59,2.16,2.16,0,0,0-.8-2.5,3.28,3.28,0,0,0-1.08-.5,2.75,2.75,0,0,0-1.73.14,3.08,3.08,0,0,0-1.78,2.1,3.8,3.8,0,0,0,.76,3.16c1.3,1.69,3.69,2,6.25,2.33a16.45,16.45,0,0,1,6.65,1.84,7.79,7.79,0,0,1,3,3.3,6.37,6.37,0,0,1,.49,4.19,5.58,5.58,0,0,1-.83,1.85c-0.11.16-.23,0.32-0.36,0.46a5.58,5.58,0,0,1,2.59.13,6.37,6.37,0,0,1,3.39,2.52,7.8,7.8,0,0,1,1.34,4.27,16.45,16.45,0,0,1-1.73,6.67c-1,2.39-1.92,4.6-1.1,6.58A3.8,3.8,0,0,0,127.71,59a3.07,3.07,0,0,0,1.11.11,3,3,0,0,0,1.6-.6,2.74,2.74,0,0,0,1-1.43,3.25,3.25,0,0,0,.11-1.18A2.16,2.16,0,0,0,129.74,54a1.82,1.82,0,0,0-.7,0,1.55,1.55,0,0,0-.45.19,0.92,0.92,0,0,1,.39.37,0.93,0.93,0,1,1-1.61.93,1.58,1.58,0,0,1,.61-1.83,2.25,2.25,0,0,1,.87-0.43,2.6,2.6,0,0,1,1,0,3,3,0,0,1,2.44,2.66,4,4,0,0,1-.14,1.47,3.51,3.51,0,0,1-1.26,1.83,3.86,3.86,0,0,1-3.06.7,15.65,15.65,0,0,0,2.52,1.41c0.51,0.24,1,.47,1.38.71a5,5,0,0,1,.78.58,3.23,3.23,0,0,1,.59.71,3,3,0,0,1,.42,1.17,2.69,2.69,0,0,1-.17,1.39,2.19,2.19,0,0,1-.87,1,2,2,0,0,1-.4.19,2.11,2.11,0,0,1,1.28,1.22,2.68,2.68,0,0,1,.17,1.39,3,3,0,0,1-.42,1.17,3.32,3.32,0,0,1-.59.71,5,5,0,0,1-.78.58,15.16,15.16,0,0,1-1.38.71,15.78,15.78,0,0,0-2.52,1.41,3.89,3.89,0,0,1,1.05-.06,3.84,3.84,0,0,1,2,.76,3.53,3.53,0,0,1,1.26,1.83,4,4,0,0,1,.14,1.47,3,3,0,0,1-2.44,2.66,2.63,2.63,0,0,1-1,0,2.26,2.26,0,0,1-.87-0.43,1.58,1.58,0,0,1-.61-1.83,0.93,0.93,0,1,1,1.61.93,0.91,0.91,0,0,1-.39.37A1.49,1.49,0,0,0,129,80a1.81,1.81,0,0,0,.7,0,2.16,2.16,0,0,0,1.77-1.94,3.24,3.24,0,0,0-.11-1.18,2.74,2.74,0,0,0-1-1.43,3.09,3.09,0,0,0-2.71-.49,3.79,3.79,0,0,0-2.35,2.24c-0.82,2,.11,4.2,1.1,6.58a16.44,16.44,0,0,1,1.73,6.67,7.8,7.8,0,0,1-1.34,4.27,6.38,6.38,0,0,1-3.39,2.52,5.61,5.61,0,0,1-2,.21,5.49,5.49,0,0,1-.58-0.08c0.13,0.15.25,0.3,0.36,0.47a5.61,5.61,0,0,1,.83,1.85,6.37,6.37,0,0,1-.49,4.19,7.79,7.79,0,0,1-3,3.3,16.44,16.44,0,0,1-6.65,1.84c-2.56.33-4.95,0.64-6.25,2.33a3.79,3.79,0,0,0-.76,3.15,3.08,3.08,0,0,0,1.78,2.1,2.75,2.75,0,0,0,1.73.14,3.26,3.26,0,0,0,1.08-.5,2.17,2.17,0,0,0,.8-2.5,1.83,1.83,0,0,0-.37-0.59,1.51,1.51,0,0,0-.39-0.29,0.93,0.93,0,1,1-1.73-.41,1.58,1.58,0,0,1,1.89-.38,2.23,2.23,0,0,1,.81.54,2.58,2.58,0,0,1,.54.84,3,3,0,0,1-1.08,3.44,4,4,0,0,1-1.34.61,3.52,3.52,0,0,1-2.21-.18,3.86,3.86,0,0,1-2.14-2.3,15.63,15.63,0,0,0,0,2.88c0,0.56.09,1.08,0.07,1.55a5.1,5.1,0,0,1-.11,1,3.3,3.3,0,0,1-.32.87,3,3,0,0,1-.8.95,2.68,2.68,0,0,1-1.29.54,2.19,2.19,0,0,1-1.33-.24,2,2,0,0,1-.36-0.26,2.14,2.14,0,0,1,0,.44A2.19,2.19,0,0,1,99.7,124a2.67,2.67,0,0,1-1.12.85,3,3,0,0,1-1.22.22,3.26,3.26,0,0,1-.91-0.16,5,5,0,0,1-.89-0.38c-0.41-.22-0.84-0.52-1.3-0.84a15.62,15.62,0,0,0-2.48-1.48,3.9,3.9,0,0,1,.58.88,3.86,3.86,0,0,1,.34,2.12,3.54,3.54,0,0,1-1,2,4,4,0,0,1-1.2.86,3,3,0,0,1-3.52-.78,2.57,2.57,0,0,1-.46-0.89,2.23,2.23,0,0,1-.06-1A1.58,1.58,0,0,1,87.78,124a0.93,0.93,0,1,1-.52,1.7,1.51,1.51,0,0,0,.06.49,1.8,1.8,0,0,0,.32.62,2.16,2.16,0,0,0,2.57.56,3.26,3.26,0,0,0,1-.69,2.75,2.75,0,0,0,.75-1.56,3.07,3.07,0,0,0-.93-2.59,3.8,3.8,0,0,0-3.11-.92c-2.12.28-3.58,2.19-5.15,4.25a16.44,16.44,0,0,1-4.91,4.84,7.77,7.77,0,0,1-4.37,1A6.37,6.37,0,0,1,69.58,130a5.63,5.63,0,0,1-1.18-1.64,5.69,5.69,0,0,1-.22-0.54,5.3,5.3,0,0,1-.22.54A5.62,5.62,0,0,1,66.77,130a6.37,6.37,0,0,1-3.88,1.67,7.79,7.79,0,0,1-4.37-1,16.42,16.42,0,0,1-4.91-4.84c-1.57-2.06-3-4-5.15-4.25a3.8,3.8,0,0,0-3.11.92,3.08,3.08,0,0,0-.93,2.59,2.75,2.75,0,0,0,.75,1.56,3.27,3.27,0,0,0,1,.69,2.17,2.17,0,0,0,2.57-.56,1.8,1.8,0,0,0,.32-0.62,1.5,1.5,0,0,0,.06-0.49,0.92,0.92,0,0,1-.51.16,0.93,0.93,0,1,1,0-1.86,1.58,1.58,0,0,1,1.27,1.44,2.24,2.24,0,0,1-.06,1,2.59,2.59,0,0,1-.46.89,3,3,0,0,1-3.52.78,4,4,0,0,1-1.2-.86,3.52,3.52,0,0,1-1-2,3.83,3.83,0,0,1,.34-2.12,3.9,3.9,0,0,1,.58-0.88,15.62,15.62,0,0,0-2.48,1.48c-0.46.32-.89,0.61-1.3,0.84a5,5,0,0,1-.89.38,3.27,3.27,0,0,1-.91.16,3,3,0,0,1-1.22-.22,2.69,2.69,0,0,1-1.12-.85,2.19,2.19,0,0,1-.45-1.27,2,2,0,0,1,0-.44,2,2,0,0,1-.37.25,2.17,2.17,0,0,1-1.33.24,2.67,2.67,0,0,1-1.29-.54,3,3,0,0,1-.8-0.95,3.27,3.27,0,0,1-.32-0.87,5.07,5.07,0,0,1-.11-1A15.28,15.28,0,0,1,32.1,118a15.71,15.71,0,0,0,0-2.89,3.86,3.86,0,0,1-2.14,2.3,3.54,3.54,0,0,1-2.21.18,4,4,0,0,1-1.34-.61,3,3,0,0,1-1.08-3.44,2.63,2.63,0,0,1,.54-0.84,2.25,2.25,0,0,1,.81-0.54,1.58,1.58,0,0,1,1.89.38,0.93,0.93,0,1,1-1.73.41,1.52,1.52,0,0,0-.39.29,1.8,1.8,0,0,0-.37.59,2.16,2.16,0,0,0,.8,2.5,3.25,3.25,0,0,0,1.08.5,2.76,2.76,0,0,0,1.73-.14,3.08,3.08,0,0,0,1.78-2.1,3.8,3.8,0,0,0-.76-3.16c-1.3-1.69-3.69-2-6.25-2.33a16.46,16.46,0,0,1-6.65-1.84,7.78,7.78,0,0,1-3-3.3,6.36,6.36,0,0,1-.49-4.19,5.59,5.59,0,0,1,.83-1.85q0.17-.24.36-0.47a5.65,5.65,0,0,1-.58.08,5.57,5.57,0,0,1-2-.21A6.36,6.36,0,0,1,9.5,94.78a7.79,7.79,0,0,1-1.34-4.27,16.46,16.46,0,0,1,1.73-6.67c1-2.39,1.92-4.6,1.11-6.58A3.79,3.79,0,0,0,8.65,75a3.08,3.08,0,0,0-2.71.49,2.75,2.75,0,0,0-1,1.43,3.27,3.27,0,0,0-.11,1.18,2.16,2.16,0,0,0,1.77,1.94,1.81,1.81,0,0,0,.7,0,1.55,1.55,0,0,0,.45-0.19A0.93,0.93,0,1,1,9,78.54a1.58,1.58,0,0,1-.61,1.83,2.25,2.25,0,0,1-.87.43,2.6,2.6,0,0,1-1,0,3,3,0,0,1-2.44-2.66,4.08,4.08,0,0,1,.14-1.47,3.53,3.53,0,0,1,1.26-1.83,3.83,3.83,0,0,1,2-.76,3.88,3.88,0,0,1,1.06.06A15.78,15.78,0,0,0,6,72.78c-0.51-.24-1-0.47-1.38-0.71a5,5,0,0,1-.78-0.58,3.29,3.29,0,0,1-.59-0.71,3,3,0,0,1-.42-1.17A2.68,2.68,0,0,1,3,68.22a2.19,2.19,0,0,1,.87-1A2.07,2.07,0,0,1,4.3,67a2.12,2.12,0,0,1-.4-0.19,2.19,2.19,0,0,1-.87-1,2.68,2.68,0,0,1-.18-1.39,3,3,0,0,1,.42-1.17,3.3,3.3,0,0,1,.59-0.71,5,5,0,0,1,.78-0.58C5,61.7,5.5,61.48,6,61.24a15.63,15.63,0,0,0,2.52-1.41,3.87,3.87,0,0,1-1.06.06,3.82,3.82,0,0,1-2-.76A3.52,3.52,0,0,1,4.21,57.3a4.05,4.05,0,0,1-.14-1.47,3,3,0,0,1,2.44-2.66,2.58,2.58,0,0,1,1,0,2.24,2.24,0,0,1,.87.43A1.58,1.58,0,0,1,9,55.47a0.93,0.93,0,1,1-1.22-1.3A1.47,1.47,0,0,0,7.31,54a1.83,1.83,0,0,0-.7,0,2.16,2.16,0,0,0-1.77,1.94A3.25,3.25,0,0,0,5,57.08a2.75,2.75,0,0,0,1,1.43,3,3,0,0,0,1.6.6A3.1,3.1,0,0,0,8.65,59,3.8,3.8,0,0,0,11,56.76c0.81-2-.11-4.2-1.11-6.58A16.47,16.47,0,0,1,8.16,43.5,7.78,7.78,0,0,1,9.5,39.23a6.36,6.36,0,0,1,3.39-2.52,5.56,5.56,0,0,1,2-.21,5.64,5.64,0,0,1,.58.08,5.73,5.73,0,0,1-.36-0.46,5.57,5.57,0,0,1-.83-1.85,6.37,6.37,0,0,1,.49-4.19,7.79,7.79,0,0,1,3-3.3,16.47,16.47,0,0,1,6.65-1.84c2.56-.33,4.95-0.64,6.25-2.33a3.8,3.8,0,0,0,.76-3.16,3.08,3.08,0,0,0-1.78-2.1A2.74,2.74,0,0,0,28,17.23a3.25,3.25,0,0,0-1.08.5,2.16,2.16,0,0,0-.8,2.5,1.8,1.8,0,0,0,.37.59,1.54,1.54,0,0,0,.39.3,0.93,0.93,0,1,1,1.73.41,1.58,1.58,0,0,1-1.89.38,2.26,2.26,0,0,1-.81-0.54,2.63,2.63,0,0,1-.54-0.84,3,3,0,0,1,1.08-3.44,4.07,4.07,0,0,1,1.34-.61,3.52,3.52,0,0,1,2.21.18,3.87,3.87,0,0,1,2.14,2.3,15.64,15.64,0,0,0,0-2.89C32,15.49,32,15,32,14.51a5,5,0,0,1,.11-1,3.26,3.26,0,0,1,.32-0.87,3,3,0,0,1,.8-0.95,2.67,2.67,0,0,1,1.29-.54,2.18,2.18,0,0,1,1.33.24,2,2,0,0,1,.37.26,2,2,0,0,1,0-.45A2.18,2.18,0,0,1,36.65,10a2.68,2.68,0,0,1,1.12-.85A3,3,0,0,1,39,8.9a3.29,3.29,0,0,1,.91.16,4.85,4.85,0,0,1,.89.39,15.24,15.24,0,0,1,1.3.84,15.64,15.64,0,0,0,2.48,1.48,3.87,3.87,0,0,1-.92-3,3.53,3.53,0,0,1,1-2,4,4,0,0,1,1.2-.86,3,3,0,0,1,3.52.78,2.6,2.6,0,0,1,.46.89,2.25,2.25,0,0,1,.06,1A1.58,1.58,0,0,1,48.57,10a0.93,0.93,0,1,1,.52-1.7A1.49,1.49,0,0,0,49,7.79a1.82,1.82,0,0,0-.32-0.62,2.17,2.17,0,0,0-2.57-.56,3.23,3.23,0,0,0-1,.69,2.75,2.75,0,0,0-.75,1.56,3.08,3.08,0,0,0,.93,2.59,3.8,3.8,0,0,0,3.11.92c2.12-.28,3.58-2.19,5.15-4.25a16.45,16.45,0,0,1,4.91-4.84,7.79,7.79,0,0,1,4.37-1A6.36,6.36,0,0,1,66.77,4,5.55,5.55,0,0,1,68,5.62a5.38,5.38,0,0,1,.22.54,5.22,5.22,0,0,1,.23-0.54A5.56,5.56,0,0,1,69.59,4a6.36,6.36,0,0,1,3.88-1.67,7.78,7.78,0,0,1,4.37,1,16.48,16.48,0,0,1,4.91,4.84c1.57,2.06,3,4,5.15,4.25A3.8,3.8,0,0,0,91,11.45a3.09,3.09,0,0,0,.65-0.9,3,3,0,0,0,.28-1.68,2.74,2.74,0,0,0-.75-1.56,3.21,3.21,0,0,0-1-.69,2.17,2.17,0,0,0-2.57.56,1.81,1.81,0,0,0-.32.62,1.45,1.45,0,0,0-.06.49,0.93,0.93,0,1,1,.52,1.7,1.58,1.58,0,0,1-1.28-1.44,2.24,2.24,0,0,1,.06-1A2.59,2.59,0,0,1,87,6.68a3,3,0,0,1,3.52-.78,4,4,0,0,1,1.2.86,3.53,3.53,0,0,1,1,2,3.86,3.86,0,0,1-.92,3"/>
	</symbol>
</svg>
