<svg id="order-icon-5" xmlns="http://www.w3.org/2000/svg" viewBox="0 0 190.81067 66.959198"><defs><clipPath id="a"><path d="M0 50.22h143.108V0H0z"/></clipPath></defs><g clip-path="url(#a)" transform="matrix(1.33333 0 0 -1.33333 0 66.96)"><path d="M2 2h41.55M99.557 2h41.55M23.93 28.61c0 10.83 21.323 19.61 47.624 19.61 26.302 0 47.624-8.78 47.624-19.61M37.587 2c0 6.634 15.207 12.012 33.967 12.012 18.76 0 33.966-5.378 33.966-12.012M71.554 14.011v34.21M59.12 14.011l-4.484 31.534M47.71 10.486L39.393 41.23M95.4 10.486l8.314 30.745M83.638 14.011l4.483 31.534" fill="none" stroke="#fff" stroke-width="4" stroke-linecap="round" stroke-linejoin="round" stroke-miterlimit="10"/></g></svg>