<svg xmlns="http://www.w3.org/2000/svg" id="order-icon-2" viewBox="0 0 87.387337 121.18667"><defs><clipPath id="a"><path d="M0 90.89h65.54V0H0z"/></clipPath></defs><g clip-path="url(#a)" transform="matrix(1.33333 0 0 -1.33333 0 121.187)"><path d="M54.98 20.21h-9.87l-3.83 21.92h17.53zM43.43 54.3h13.23l3.38-7.38h-20zm-28.42 8.77L5.36 74.44h27.7a53.01 53.01 0 0 1-18.03-11.36zm-11 6.81l8.24-9.71A54.613 54.613 0 0 1 4 47.76v22.12zm61.35-24.9l-5.59 12.16a2 2 0 0 1-1.82 1.17h-5.4v17.84a1.94 1.94 0 0 1-1.19 2.11h-.07l-.26.08H4v10.55a2 2 0 0 1-4 0V2a2 2 0 0 1 4 0v34c.48 2.62 6.89 33.24 44.56 38.17V58.31h-6.4a2 2 0 0 1-1.82-1.17l-5.57-12.16a2 2 0 0 1 1.82-2.83h.65l4.24-24.27a2 2 0 0 1 2-1.66h4.61v-4.27a2 2 0 0 1 4 0v4.27h4.61a2 2 0 0 1 2 1.66l4.24 24.27h.64a2 2 0 0 1 1.78 2.83"/></g></svg>