<svg xmlns="http://www.w3.org/2000/svg" id="order-icon-1"  viewBox="0 0 159.11867 123.32827">
<g clip-path="url(#a)" transform="matrix(1.33333 0 0 -1.33333 0 123.328)"><path d="M16.37 20.66a4.862 4.862 0 0 1 2.53 2.69c4.84 3.52 12.89 11.94 15.89 30.14 1 6.35 3.69 11.06 7.87 14a21.568 21.568 0 0 0 11.32 3.58 6 6 0 0 1 11.07 0 21.5 21.5 0 0 0 11.15-3.59c4.18-2.95 6.83-7.66 7.87-14 3-18.18 11-26.6 15.87-30.13a4.86 4.86 0 0 1 2.55-2.71V4H16.37zm1.83 7.32a4.86 4.86 0 0 1-1.86 1.5v35a14.478 14.478 0 0 1 11-4.93c1.742.015 3.472.278 5.14.78a31.82 31.82 0 0 1-1.67-6.2c-2.39-14.71-8.35-22.4-12.61-26.15m22.18 42.79a20.844 20.844 0 0 1-4.84-4.75c-1.66-1-10.36-5.87-16.67 1.68a4.73 4.73 0 0 1 .26 2.74l38.23 16.94v-8.32a6 6 0 0 1-3.65-4 25.485 25.485 0 0 1-13.32-4.29zm24.92 4.29a6 6 0 0 1-3.79 4v8.27L99.73 70.4a4.743 4.743 0 0 1 .27-2.76c-6.28-7.48-15-2.68-16.67-1.66a20.844 20.844 0 0 1-4.84 4.75 25.427 25.427 0 0 1-13.19 4.33m22.74-20.94a31.82 31.82 0 0 1-1.67 6.2 18.38 18.38 0 0 1 5.13-.77 14.478 14.478 0 0 1 11 4.93v-35a4.865 4.865 0 0 1-1.89-1.53c-4.21 3.71-10.14 11.39-12.57 26.17m29.44-50.13h-11v16.67a4.84 4.84 0 0 1 0 8.83V65.1a4.85 4.85 0 1 1-4.36 8.65L60.66 92.12l-.09.07c-.72.408-1.6.408-2.32 0l-.09-.07-41.47-18.38a4.807 4.807 0 0 1-2.35.63 4.86 4.86 0 0 1-2-9.28v-35.6a4.85 4.85 0 0 1 0-8.84V4H2a2 2 0 0 1 0-4h115.48a2 2 0 0 1 0 3.99"/></g>
</svg>