<svg xmlns="http://www.w3.org/2000/svg" id="order-icon-4" viewBox="0 0 162.664 143.13333"><defs><clipPath id="a"><path d="M0 107.35h121.998V0H0z"/></clipPath></defs><g clip-path="url(#a)" transform="matrix(1.33333 0 0 -1.33333 0 143.133)"><path d="M2 2h117.998M16.718 2v61.377M106.55 2v61.377M16.718 60.434c0 24.807 20.11 44.917 44.917 44.917 24.807 0 44.917-20.11 44.917-44.916" fill="none" stroke="#fff" stroke-width="4" stroke-linecap="round" stroke-linejoin="round" stroke-miterlimit="10"/><path d="M16.718 46.35c0 12.402 10.055 22.457 22.458 22.457 12.404 0 22.46-10.055 22.46-22.458" fill="none" stroke="#fff" stroke-width="4" stroke-linecap="round" stroke-linejoin="round" stroke-miterlimit="10"/><path d="M61.635 46.35c0 12.402 10.055 22.457 22.458 22.457 12.404 0 22.46-10.055 22.46-22.458M16.55 22.167h27V2M106.555 22.167h-27V2" fill="none" stroke="#fff" stroke-width="4" stroke-linecap="round" stroke-linejoin="round" stroke-miterlimit="10"/></g></svg>